{"glyphs":{"0":{"ha":1442,"x_min":81,"x_max":1361,"o":"m 751 1050 q 1139 961 990 1050 q 1318 758 1263 885 q 1361 540 1361 657 l 1361 499 q 1317 282 1361 383 q 1138 75 1260 150 q 751 -17 989 -17 l 690 -17 q 304 75 453 -17 q 125 282 182 150 q 81 499 81 383 l 81 540 q 125 760 81 660 q 304 961 182 888 q 690 1050 453 1050 l 751 1050 m 1015 531 q 964 694 1015 628 q 721 792 889 792 q 476 694 549 792 q 426 531 426 628 l 426 513 q 438 426 426 471 q 479 344 450 382 q 722 244 557 244 q 965 344 890 244 q 1015 513 1015 411 l 1015 531 z "},"1":{"ha":774,"x_min":68,"x_max":647,"o":"m 68 642 l 68 868 q 296 904 224 868 q 357 953 333 922 q 397 1033 381 983 l 647 1033 l 647 0 l 318 0 l 318 642 l 68 642 z "},"2":{"ha":1293,"x_min":82,"x_max":1221,"o":"m 82 0 l 82 165 q 96 284 82 232 q 150 383 110 336 q 515 569 247 494 l 597 592 l 672 613 q 817 664 775 638 q 843 690 836 676 q 850 721 850 703 l 850 722 q 814 786 850 764 q 654 813 768 813 q 476 757 526 813 q 442 665 444 724 l 100 665 l 100 675 q 133 833 100 763 q 282 982 178 928 q 615 1047 410 1047 l 685 1047 q 1092 954 968 1047 q 1199 722 1199 874 l 1199 711 q 1174 590 1199 640 q 1099 504 1150 540 q 967 442 1049 468 q 764 393 885 415 l 681 376 q 481 331 549 350 q 408 304 431 315 q 375 282 382 292 q 367 263 367 272 l 1221 263 l 1221 0 l 82 0 z "},"3":{"ha":1307,"x_min":64,"x_max":1235,"o":"m 604 -15 q 253 53 386 -15 q 99 201 149 106 q 64 343 64 268 l 64 358 l 408 358 q 447 286 413 317 q 643 235 504 235 q 846 272 790 235 q 886 343 886 297 l 886 344 q 858 403 886 382 q 758 424 829 424 l 440 424 l 440 646 l 757 646 q 850 668 821 646 q 872 718 872 685 q 865 753 872 738 q 836 781 858 768 q 767 801 814 793 q 639 810 719 810 q 514 797 558 810 q 421 735 433 775 q 414 710 418 729 l 78 710 l 78 726 q 107 851 78 793 q 251 985 147 933 q 588 1047 376 1047 l 668 1047 q 1107 958 975 1047 q 1201 783 1201 894 l 1201 774 q 1151 647 1201 700 q 1039 585 1111 604 q 1172 513 1121 567 q 1235 347 1235 447 l 1235 339 q 1131 103 1235 189 q 669 -15 989 -15 l 604 -15 z "},"4":{"ha":1347,"x_min":68,"x_max":1293,"o":"m 68 210 l 68 411 l 643 1040 l 1065 1040 l 1065 451 l 1293 451 l 1293 210 l 1065 210 l 1065 0 l 738 0 l 738 210 l 68 210 m 738 451 l 738 826 l 397 451 l 738 451 z "},"5":{"ha":1272,"x_min":96,"x_max":1201,"o":"m 621 -15 q 276 46 408 -15 q 128 175 175 93 q 96 296 96 231 l 96 314 l 443 314 q 482 267 446 288 q 653 233 536 233 q 825 269 768 233 q 871 350 871 299 l 871 357 q 825 438 871 411 q 653 468 772 468 q 482 440 535 468 q 451 417 461 429 q 440 397 443 407 l 111 397 l 111 1033 l 1129 1033 l 1129 786 l 439 786 l 439 606 l 465 624 q 614 675 514 654 q 743 686 672 686 l 758 686 q 1117 582 1003 686 q 1201 364 1201 501 l 1201 347 q 1104 110 1201 201 q 678 -15 969 -15 l 621 -15 z "},"6":{"ha":1360,"x_min":81,"x_max":1286,"o":"m 661 -15 q 285 78 425 -15 q 118 283 165 154 q 81 494 81 379 l 81 528 q 118 735 81 635 q 283 949 169 871 q 656 1046 425 1046 l 704 1046 q 1149 936 1013 1046 q 1249 726 1249 854 l 1249 725 l 910 725 q 867 776 897 758 q 689 811 808 811 q 467 721 535 811 q 421 569 421 663 l 421 560 l 454 585 q 628 642 510 621 q 783 653 697 653 l 808 653 q 1183 564 1063 653 q 1286 363 1286 489 l 1286 339 q 1188 108 1286 199 q 732 -15 1050 -15 l 661 -15 m 454 333 q 499 257 454 285 q 699 219 557 219 q 904 260 847 219 q 944 332 944 286 l 944 338 q 900 410 944 383 q 699 446 840 446 q 499 410 557 446 q 454 338 454 383 l 454 333 z "},"7":{"ha":1250,"x_min":88,"x_max":1181,"o":"m 1181 1033 l 1181 801 q 1160 772 1181 801 q 964 485 1019 571 q 840 226 871 339 q 822 131 826 178 q 818 22 818 85 l 818 0 l 457 0 l 457 97 q 463 212 457 164 q 489 306 469 260 q 551 412 510 356 q 664 543 593 468 q 821 706 778 660 q 869 760 844 729 q 888 788 888 779 l 414 788 l 414 614 l 88 614 l 88 1033 l 1181 1033 z "},"8":{"ha":1339,"x_min":72,"x_max":1265,"o":"m 639 -17 q 164 97 303 -17 q 72 294 72 172 l 72 310 q 91 395 72 356 q 144 465 110 435 q 311 542 210 525 q 164 610 222 557 q 116 673 133 638 q 99 750 99 708 l 99 764 q 129 883 99 835 q 278 994 175 957 q 639 1043 410 1043 l 699 1043 q 1061 994 926 1043 q 1211 885 1168 956 q 1240 764 1240 836 l 1240 750 q 1176 610 1240 667 q 1029 542 1118 557 q 1197 465 1132 525 q 1248 396 1231 436 q 1265 310 1265 356 l 1265 294 q 1232 164 1265 219 q 1072 39 1183 83 q 699 -17 931 -17 l 639 -17 m 890 736 q 853 794 890 775 q 668 824 797 824 q 483 794 539 824 q 446 736 446 775 l 446 732 q 485 674 446 694 q 668 646 538 646 q 853 674 800 646 q 883 699 875 685 q 890 732 890 714 l 890 736 m 917 325 q 875 394 917 371 q 668 426 818 426 q 463 394 517 426 q 421 325 421 371 l 421 322 q 464 254 421 281 q 668 218 518 218 q 875 254 818 218 q 917 322 917 281 l 917 325 z "},"9":{"ha":1360,"x_min":74,"x_max":1279,"o":"m 656 -15 q 311 40 446 -15 q 151 167 201 86 q 113 303 113 229 l 113 304 l 450 304 q 460 283 453 294 q 556 231 478 250 q 671 219 600 219 q 894 308 825 219 q 939 461 939 368 l 939 471 q 913 451 936 469 q 840 415 889 433 q 576 378 738 378 l 551 378 q 176 468 296 378 q 74 678 74 546 l 74 700 q 174 926 74 840 q 622 1046 310 1046 l 703 1046 q 1076 956 935 1046 q 1242 751 1192 881 q 1279 539 1279 656 l 1279 507 q 1243 296 1279 396 q 1081 82 1196 163 q 711 -15 942 -15 l 656 -15 m 906 697 q 861 772 906 744 q 660 811 800 811 q 456 772 514 811 q 415 699 415 743 l 415 693 q 460 621 415 647 q 660 585 519 585 q 863 621 803 585 q 906 693 906 647 l 906 697 z "},"\u0000":{"ha":0,"x_min":0,"x_max":0,"o":""},"\r":{"ha":463,"x_min":0,"x_max":0,"o":""}," ":{"ha":411,"x_min":0,"x_max":0,"o":""},"!":{"ha":564,"x_min":89,"x_max":474,"o":"m 89 1033 l 474 1033 l 358 356 l 206 356 l 89 1033 m 453 272 l 453 0 l 113 0 l 113 272 l 453 272 z "},",":{"ha":536,"x_min":89,"x_max":447,"o":"m 164 -207 q 217 -102 193 -160 q 251 0 242 -44 l 89 0 l 89 290 l 447 290 l 447 67 q 419 -89 447 -8 q 365 -207 400 -147 l 164 -207 z "},"-":{"ha":668,"x_min":96,"x_max":572,"o":"m 96 543 l 572 543 l 572 290 l 96 290 l 96 543 z "},".":{"ha":536,"x_min":89,"x_max":447,"o":"m 447 290 l 447 0 l 89 0 l 89 290 l 447 290 z "},":":{"ha":550,"x_min":96,"x_max":454,"o":"m 454 290 l 454 0 l 96 0 l 96 290 l 454 290 m 454 750 l 454 460 l 96 460 l 96 750 l 454 750 z "},";":{"ha":550,"x_min":96,"x_max":454,"o":"m 171 -207 q 224 -102 200 -160 q 258 0 249 -44 l 96 0 l 96 290 l 454 290 l 454 67 q 426 -89 454 -8 q 372 -207 407 -147 l 171 -207 m 454 750 l 454 460 l 96 460 l 96 750 l 454 750 z "},"?":{"ha":1176,"x_min":54,"x_max":1117,"o":"m 390 356 l 390 417 q 399 492 390 461 q 428 550 407 524 q 490 599 450 576 q 596 642 531 621 l 669 665 q 757 704 736 686 q 778 747 778 721 q 744 800 778 782 q 589 821 703 821 q 422 774 467 821 q 401 738 406 756 q 394 697 396 719 l 54 697 l 54 715 q 82 856 54 797 q 219 988 121 942 q 550 1046 343 1046 l 618 1046 q 1021 954 896 1046 q 1117 754 1117 882 l 1117 742 q 1057 581 1117 642 q 851 474 996 515 l 782 453 q 718 421 733 438 q 701 368 701 404 l 701 356 l 390 356 m 717 272 l 717 0 l 376 0 l 376 272 l 717 272 z "},"A":{"ha":1400,"x_min":4,"x_max":1396,"o":"m 1042 0 l 961 179 l 415 179 l 336 0 l 4 0 l 474 1033 l 911 1033 l 1396 0 l 1042 0 m 860 407 l 686 793 l 517 407 l 860 407 z "},"B":{"ha":1429,"x_min":122,"x_max":1364,"o":"m 122 1033 l 932 1033 q 1232 958 1136 1033 q 1310 790 1310 896 l 1310 778 q 1242 628 1310 686 q 1179 590 1213 604 q 1114 571 1146 575 q 1282 501 1218 553 q 1364 315 1364 433 l 1364 301 q 1275 93 1364 168 q 935 0 1168 0 l 122 0 l 122 1033 m 454 804 l 454 638 l 857 638 q 965 719 965 638 l 965 722 q 941 783 965 761 q 857 804 917 804 l 454 804 m 454 424 l 454 240 l 883 240 q 982 271 951 240 q 1006 333 1006 293 l 1006 339 q 982 399 1006 379 q 883 424 953 424 l 454 424 z "},"C":{"ha":1446,"x_min":76,"x_max":1372,"o":"m 699 -17 q 314 71 463 -17 q 126 274 185 147 q 76 499 76 379 l 76 540 q 126 765 76 660 q 313 965 188 894 q 699 1050 463 1050 l 763 1050 q 1251 911 1096 1050 q 1344 782 1315 854 q 1372 632 1372 710 l 1372 625 l 1031 625 q 1019 663 1026 643 q 977 719 1010 692 q 889 768 944 747 q 731 790 832 790 q 485 706 563 790 q 422 531 422 638 l 422 513 q 438 421 422 467 q 486 338 453 375 q 732 246 568 246 q 979 319 903 246 q 1019 376 1008 346 q 1031 414 1026 396 l 1372 414 l 1372 406 q 1324 218 1372 306 q 1139 54 1267 115 q 763 -17 990 -17 l 699 -17 z "},"D":{"ha":1442,"x_min":122,"x_max":1368,"o":"m 122 1033 l 692 1033 q 1238 875 1067 1033 q 1368 549 1368 751 l 1368 507 q 1321 275 1368 374 q 1122 81 1261 150 q 693 0 961 0 l 122 0 l 122 1033 m 454 249 l 663 249 q 965 342 879 249 q 1022 517 1022 404 l 1022 525 q 965 696 1022 636 q 663 786 878 786 l 454 786 l 454 249 z "},"E":{"ha":1218,"x_min":122,"x_max":1121,"o":"m 122 1033 l 1113 1033 l 1113 796 l 451 796 l 451 646 l 1092 646 l 1092 400 l 451 400 l 451 240 l 1121 240 l 1121 0 l 122 0 l 122 1033 z "},"F":{"ha":1194,"x_min":122,"x_max":1104,"o":"m 122 1033 l 1104 1033 l 1104 790 l 453 790 l 453 622 l 1085 622 l 1085 374 l 453 374 l 453 0 l 122 0 l 122 1033 z "},"G":{"ha":1499,"x_min":76,"x_max":1393,"o":"m 682 -15 q 206 157 365 -15 q 108 319 139 228 q 76 504 76 410 l 76 538 q 131 769 76 663 q 324 967 192 896 q 711 1049 478 1049 l 758 1049 q 1256 921 1092 1049 q 1351 805 1321 869 q 1381 675 1381 740 l 1381 671 l 1035 671 l 1019 701 q 886 778 989 750 q 736 793 828 793 q 486 711 568 793 q 421 531 421 644 l 421 514 q 438 416 421 464 q 490 331 454 368 q 742 240 574 240 q 974 299 893 240 q 1033 382 1021 335 l 744 382 l 744 571 l 1393 571 l 1393 0 l 1146 0 q 1131 69 1143 28 q 1104 138 1125 89 q 990 49 1053 81 q 706 -15 868 -15 l 682 -15 z "},"H":{"ha":1457,"x_min":122,"x_max":1335,"o":"m 122 0 l 122 1033 l 454 1033 l 454 660 l 1003 660 l 1003 1033 l 1335 1033 l 1335 0 l 1003 0 l 1003 403 l 454 403 l 454 0 l 122 0 z "},"I":{"ha":576,"x_min":122,"x_max":454,"o":"m 454 1033 l 454 0 l 122 0 l 122 1033 l 454 1033 z "},"J":{"ha":1250,"x_min":51,"x_max":1135,"o":"m 565 -17 q 240 64 364 -17 q 89 246 136 131 q 51 447 51 338 l 51 454 l 389 454 q 426 329 392 382 q 586 253 475 253 l 592 253 q 760 324 706 253 q 803 488 803 382 l 803 1033 l 1135 1033 l 1135 479 q 1099 265 1135 360 q 947 68 1050 138 q 615 -17 819 -17 l 565 -17 z "},"K":{"ha":1328,"x_min":122,"x_max":1339,"o":"m 453 0 l 122 0 l 122 1033 l 453 1033 l 453 621 l 907 1033 l 1310 1033 l 786 564 l 1339 0 l 914 0 l 453 474 l 453 0 z "},"L":{"ha":1147,"x_min":122,"x_max":1079,"o":"m 122 1033 l 454 1033 l 454 269 l 1079 269 l 1079 0 l 122 0 l 122 1033 z "},"M":{"ha":1738,"x_min":122,"x_max":1615,"o":"m 122 0 l 122 1033 l 572 1033 l 876 390 l 1188 1033 l 1615 1033 l 1615 0 l 1290 0 l 1290 660 l 981 0 l 750 0 l 442 660 l 442 0 l 122 0 z "},"N":{"ha":1486,"x_min":122,"x_max":1364,"o":"m 1043 0 l 446 631 l 446 0 l 122 0 l 122 1033 l 461 1033 l 1042 414 l 1042 1033 l 1364 1033 l 1364 0 l 1043 0 z "},"O":{"ha":1501,"x_min":76,"x_max":1425,"o":"m 782 1050 q 1179 967 1024 1050 q 1374 771 1308 896 q 1425 540 1425 668 l 1425 499 q 1395 319 1425 408 q 1299 160 1365 231 q 782 -17 1132 -17 l 719 -17 q 324 69 478 -17 q 129 269 190 143 q 76 499 76 374 l 76 540 q 129 771 76 669 q 324 967 192 896 q 719 1050 476 1050 l 782 1050 m 1079 529 q 1019 703 1079 638 q 751 792 938 792 q 483 703 568 792 q 422 529 422 638 l 422 511 q 486 336 422 404 q 751 244 571 244 q 1019 336 938 244 q 1079 511 1079 403 l 1079 529 z "},"P":{"ha":1375,"x_min":122,"x_max":1307,"o":"m 454 319 l 454 0 l 122 0 l 122 1033 l 850 1033 q 1213 936 1101 1033 q 1307 688 1307 853 l 1307 671 q 1211 419 1307 504 q 850 319 1097 319 l 454 319 m 454 567 l 822 567 q 963 675 963 567 l 963 679 q 822 785 963 785 l 454 785 l 454 567 z "},"Q":{"ha":1503,"x_min":76,"x_max":1426,"o":"m 621 -12 q 183 185 322 11 q 101 335 126 254 q 76 499 76 417 l 76 540 q 126 767 76 663 q 318 965 189 896 q 721 1050 474 1050 l 782 1050 q 1186 965 1028 1050 q 1378 767 1317 894 q 1426 540 1426 665 l 1426 499 q 1405 342 1426 421 q 1333 199 1383 264 q 944 -6 1207 32 l 1115 -215 l 621 -215 l 621 -12 m 1081 529 q 1021 701 1081 636 q 751 792 938 792 q 482 703 567 792 q 421 529 421 638 l 421 511 q 483 336 421 406 q 751 243 567 243 q 1019 336 933 243 q 1081 511 1081 403 l 1081 529 z "},"R":{"ha":1422,"x_min":122,"x_max":1349,"o":"m 1099 497 q 1267 418 1210 476 q 1332 240 1332 350 l 1332 106 q 1338 38 1332 54 q 1349 7 1342 18 l 1349 0 l 1006 0 q 1000 21 1001 14 q 997 68 997 40 l 997 154 q 988 240 997 206 q 956 296 978 275 q 803 336 911 336 l 454 336 l 454 0 l 122 0 l 122 1033 l 889 1033 q 1251 940 1146 1033 q 1324 754 1324 875 l 1324 742 q 1257 578 1324 644 q 1099 497 1196 517 m 454 590 l 844 590 q 951 619 918 590 q 978 689 978 642 l 978 692 q 951 758 978 736 q 844 786 917 786 l 454 786 l 454 590 z "},"S":{"ha":1329,"x_min":78,"x_max":1250,"o":"m 651 -18 q 272 43 410 -18 q 111 182 160 93 q 78 331 78 243 l 78 343 l 436 343 q 475 260 439 292 q 664 208 532 208 l 672 208 q 863 243 807 208 q 892 275 885 257 q 900 317 900 293 q 892 355 900 339 q 863 383 883 371 q 697 413 815 411 l 556 417 q 188 515 300 425 q 90 725 90 592 l 90 738 q 196 957 90 882 q 631 1047 326 1047 l 683 1047 q 1138 944 1007 1047 q 1232 733 1232 869 l 1232 722 l 879 722 q 867 760 875 743 q 838 792 858 776 q 661 828 785 828 l 649 828 q 476 804 526 828 q 445 778 454 793 q 436 743 436 764 q 474 683 436 703 q 628 654 519 656 l 774 650 q 1157 558 1042 642 q 1228 467 1207 521 q 1250 343 1250 414 l 1250 326 q 1214 167 1250 232 q 1051 36 1165 82 q 689 -18 917 -18 l 651 -18 z "},"T":{"ha":1272,"x_min":64,"x_max":1208,"o":"m 471 0 l 471 772 l 64 772 l 64 1033 l 1208 1033 l 1208 772 l 801 772 l 801 0 l 471 0 z "},"U":{"ha":1465,"x_min":117,"x_max":1350,"o":"m 715 -15 q 315 79 463 -15 q 150 294 200 153 q 117 525 117 389 l 117 1033 l 447 1033 l 447 529 q 497 350 447 417 q 732 258 563 258 l 739 258 q 972 350 907 258 q 1019 529 1019 415 l 1019 1033 l 1350 1033 l 1350 525 q 1314 294 1350 394 q 1146 79 1264 156 q 756 -15 999 -15 l 715 -15 z "},"V":{"ha":1404,"x_min":8,"x_max":1396,"o":"m 924 0 l 501 0 l 8 1033 l 393 1033 l 718 297 l 1043 1033 l 1396 1033 l 924 0 z "},"W":{"ha":1922,"x_min":14,"x_max":1908,"o":"m 754 0 l 368 0 l 14 1033 l 369 1033 l 583 322 l 793 1033 l 1160 1033 l 1368 321 l 1582 1033 l 1908 1033 l 1564 0 l 1172 0 l 963 683 l 754 0 z "},"X":{"ha":1356,"x_min":3,"x_max":1353,"o":"m 954 0 l 675 333 l 393 0 l 3 0 l 440 531 l 15 1033 l 431 1033 l 690 721 l 950 1033 l 1329 1033 l 914 532 l 1353 0 l 954 0 z "},"Y":{"ha":1342,"x_min":-12,"x_max":1354,"o":"m 514 0 l 514 374 l -12 1033 l 394 1033 l 692 646 l 990 1033 l 1354 1033 l 844 372 l 844 0 l 514 0 z "},"Z":{"ha":1299,"x_min":99,"x_max":1201,"o":"m 1201 0 l 99 0 l 99 218 l 715 774 l 103 774 l 103 1033 l 1196 1033 l 1196 817 l 553 263 l 1201 263 l 1201 0 z "},"a":{"ha":1126,"x_min":67,"x_max":1088,"o":"m 701 101 q 611 31 660 57 q 403 -15 525 -15 l 379 -15 q 143 57 225 -15 q 86 135 106 90 q 67 232 67 181 l 67 238 q 143 400 67 347 q 421 474 222 457 l 636 490 q 681 504 668 493 q 693 536 693 515 l 693 538 q 669 585 693 571 q 549 606 635 606 l 544 606 q 425 576 457 606 q 403 528 403 556 l 86 528 l 86 529 q 111 638 86 590 q 232 744 149 707 q 522 792 343 792 l 567 792 q 936 701 833 792 q 988 624 975 667 q 1001 528 1001 581 l 1001 281 q 1011 238 1001 250 q 1051 226 1021 226 l 1088 226 l 1088 0 l 832 0 q 743 35 781 0 q 701 101 714 60 m 499 167 q 650 218 596 167 q 683 265 672 239 q 693 314 693 290 l 693 363 q 538 332 644 350 q 414 299 444 317 q 381 244 381 281 l 381 242 q 410 187 381 207 q 499 167 439 167 z "},"b":{"ha":1215,"x_min":108,"x_max":1146,"o":"m 722 -15 q 511 29 606 -15 q 414 99 458 54 q 393 0 401 63 l 108 0 l 108 1051 l 424 1051 l 424 681 q 525 747 464 721 q 735 789 619 789 l 751 789 q 1060 667 957 789 q 1125 547 1104 615 q 1146 403 1146 478 l 1146 381 q 1124 240 1146 310 q 1060 117 1103 171 q 739 -15 954 -15 l 722 -15 m 817 392 q 779 510 817 461 q 628 571 732 571 l 615 571 q 524 554 563 571 q 463 511 486 538 q 431 454 442 486 q 421 392 421 422 l 421 386 q 431 322 421 354 q 463 265 442 290 q 615 204 514 204 l 628 204 q 779 268 731 204 q 817 386 817 317 l 817 392 z "},"c":{"ha":1156,"x_min":68,"x_max":1089,"o":"m 1089 313 q 1058 175 1089 238 q 924 40 1018 89 q 619 -21 806 -21 l 551 -21 q 156 122 276 -21 q 88 247 108 179 q 68 381 68 314 l 68 400 q 88 533 68 467 q 156 654 108 600 q 550 794 279 794 l 610 794 q 922 735 799 794 q 1058 604 1018 688 q 1089 472 1089 542 l 1089 471 l 760 471 q 726 533 756 506 q 588 579 678 579 l 575 579 q 433 519 479 579 q 396 393 396 472 l 396 392 q 435 261 396 314 q 578 197 481 197 l 590 197 q 729 247 686 197 q 752 283 744 265 q 760 313 760 301 l 1089 313 z "},"d":{"ha":1215,"x_min":71,"x_max":1107,"o":"m 1107 1051 l 1107 0 l 792 0 l 792 96 q 703 29 761 58 q 497 -15 614 -15 l 481 -15 q 165 107 274 -15 q 94 228 117 160 q 71 372 71 297 l 71 400 q 94 543 71 474 q 163 665 117 613 q 478 789 272 789 l 494 789 q 697 754 604 789 q 765 720 740 739 q 792 699 789 701 l 792 1051 l 1107 1051 m 588 571 q 436 510 485 571 q 397 390 397 464 l 397 386 q 436 268 397 317 q 588 204 488 204 l 601 204 q 751 265 700 204 q 783 322 772 290 q 793 386 793 354 l 793 390 q 783 454 793 422 q 751 511 772 486 q 601 571 701 571 l 588 571 z "},"e":{"ha":1174,"x_min":68,"x_max":1107,"o":"m 1104 247 q 1072 144 1101 192 q 935 33 1032 75 q 625 -19 813 -19 l 568 -19 q 165 113 290 -19 q 68 376 68 214 l 68 396 q 163 661 68 560 q 550 792 283 792 l 611 792 q 1018 656 899 792 q 1088 522 1068 597 q 1107 354 1107 446 l 1107 326 l 392 326 q 450 221 403 258 q 607 181 501 181 q 742 208 699 181 q 767 231 760 218 l 775 247 l 1104 247 m 585 604 q 451 572 494 604 q 396 478 408 539 l 771 478 q 736 563 771 532 q 585 604 688 604 z "},"f":{"ha":747,"x_min":51,"x_max":694,"o":"m 694 872 l 586 872 q 542 858 556 872 q 528 813 528 844 l 528 774 l 694 774 l 694 560 l 528 560 l 528 0 l 217 0 l 217 560 l 51 560 l 51 774 l 217 774 l 217 824 q 228 922 217 881 q 267 992 240 964 q 465 1051 324 1051 l 694 1051 l 694 872 z "},"g":{"ha":1215,"x_min":71,"x_max":1107,"o":"m 586 -285 q 192 -190 306 -285 q 115 -29 115 -128 l 115 -24 l 457 -24 q 490 -56 467 -44 q 607 -75 526 -75 l 621 -75 q 753 -35 711 -75 q 794 75 794 6 l 794 129 q 707 67 754 89 q 501 26 621 26 l 482 26 q 160 146 268 26 q 92 262 114 196 q 71 397 71 328 l 71 421 q 93 558 71 492 q 161 674 115 624 q 475 789 267 789 l 490 789 q 700 754 611 789 q 765 719 742 738 q 793 697 789 700 l 793 774 l 1107 774 l 1107 88 q 1006 -178 1107 -85 q 631 -285 888 -285 l 586 -285 m 590 575 q 436 521 486 575 q 397 410 397 476 l 397 407 q 438 297 397 342 q 590 240 488 240 l 604 240 q 754 294 704 240 q 796 404 796 340 l 796 410 q 754 521 796 475 q 603 575 703 575 l 590 575 z "},"h":{"ha":1192,"x_min":108,"x_max":1086,"o":"m 108 1051 l 424 1051 l 424 654 q 529 740 464 704 q 743 793 629 793 l 757 793 q 901 768 839 793 q 1007 700 964 743 q 1066 608 1046 660 q 1086 500 1086 556 l 1086 0 l 771 0 l 771 394 q 732 507 771 467 q 601 554 685 554 q 468 503 515 554 q 424 383 424 454 l 424 0 l 108 0 l 108 1051 z "},"i":{"ha":532,"x_min":107,"x_max":425,"o":"m 425 1054 l 425 851 l 107 851 l 107 1054 l 425 1054 m 424 774 l 424 0 l 108 0 l 108 774 l 424 774 z "},"j":{"ha":532,"x_min":-21,"x_max":425,"o":"m 425 1054 l 425 851 l 107 851 l 107 1054 l 425 1054 m 57 -49 q 97 -35 86 -49 q 108 8 108 -22 l 108 774 l 424 774 l 424 -58 q 378 -210 424 -157 q 246 -264 333 -264 l -21 -264 l -21 -49 l 57 -49 z "},"k":{"ha":1057,"x_min":108,"x_max":1061,"o":"m 424 0 l 108 0 l 108 1051 l 424 1051 l 424 474 l 674 774 l 1026 774 l 722 426 l 1061 0 l 697 0 l 424 347 l 424 0 z "},"l":{"ha":532,"x_min":108,"x_max":424,"o":"m 424 1051 l 424 0 l 108 0 l 108 1051 l 424 1051 z "},"m":{"ha":1792,"x_min":108,"x_max":1686,"o":"m 108 0 l 108 774 l 421 774 l 421 650 q 519 739 461 703 q 724 793 608 793 l 733 793 q 917 747 839 793 q 1018 638 981 710 q 1146 743 1068 703 q 1350 793 1239 793 l 1361 793 q 1615 694 1531 793 q 1669 598 1651 653 q 1686 486 1686 543 l 1686 0 l 1371 0 l 1371 400 q 1336 507 1371 464 q 1215 554 1296 554 q 1094 504 1138 554 q 1054 386 1054 460 l 1054 0 l 740 0 l 740 400 q 707 507 740 468 q 585 554 664 554 q 464 506 506 554 q 424 386 424 461 l 424 0 l 108 0 z "},"n":{"ha":1192,"x_min":108,"x_max":1086,"o":"m 108 774 l 421 774 l 421 651 q 528 739 464 704 q 743 793 628 793 l 757 793 q 901 768 839 793 q 1007 700 964 743 q 1066 608 1046 660 q 1086 500 1086 556 l 1086 0 l 771 0 l 771 394 q 732 507 771 467 q 601 554 685 554 q 468 503 515 554 q 424 383 424 454 l 424 0 l 108 0 l 108 774 z "},"o":{"ha":1190,"x_min":67,"x_max":1124,"o":"m 574 -21 q 244 51 367 -21 q 99 210 144 108 q 67 374 67 281 l 67 393 q 99 558 67 485 q 243 721 144 661 q 572 794 365 794 l 619 794 q 956 721 832 794 q 1096 558 1054 663 q 1124 394 1124 483 l 1124 372 q 1096 210 1124 283 q 954 51 1056 110 q 618 -21 832 -21 l 574 -21 m 601 197 q 757 265 706 197 q 796 390 796 315 q 757 515 796 465 q 601 579 707 579 l 589 579 q 432 515 479 579 q 394 390 394 467 q 432 264 394 314 q 589 197 479 197 l 601 197 z "},"p":{"ha":1215,"x_min":108,"x_max":1146,"o":"m 108 774 l 422 774 l 422 676 q 525 746 458 715 q 733 789 617 789 l 747 789 q 1061 667 956 789 q 1125 545 1104 614 q 1146 401 1146 476 l 1146 378 q 1124 240 1146 308 q 1058 117 1103 171 q 739 -15 953 -15 l 724 -15 q 519 28 608 -15 q 424 92 468 50 l 424 -264 l 108 -264 l 108 774 m 818 390 q 781 510 818 461 q 628 571 731 571 l 617 571 q 464 510 515 571 q 433 453 443 485 q 422 390 422 421 l 422 383 q 433 321 422 353 q 464 264 443 289 q 617 204 514 204 l 628 204 q 781 267 731 204 q 818 385 818 315 l 818 390 z "},"q":{"ha":1215,"x_min":71,"x_max":1107,"o":"m 489 789 q 707 747 611 789 q 806 679 765 719 q 826 774 821 728 l 1107 774 l 1107 -264 l 792 -264 l 792 94 q 703 29 761 58 q 497 -15 611 -15 l 479 -15 q 163 111 272 -15 q 93 234 115 165 q 71 378 71 303 l 71 401 q 93 542 71 474 q 161 664 115 611 q 474 789 269 789 l 489 789 m 589 571 q 438 510 489 571 q 399 390 399 464 l 399 386 q 438 267 399 315 q 589 204 486 204 l 601 204 q 753 264 703 204 q 793 385 793 313 l 793 392 q 783 455 793 424 q 753 511 774 486 q 601 571 703 571 l 589 571 z "},"r":{"ha":1021,"x_min":108,"x_max":963,"o":"m 108 0 l 108 774 l 421 774 l 421 647 q 499 733 453 700 q 683 790 575 790 l 693 790 q 903 701 833 790 q 963 485 963 625 q 960 385 963 449 l 642 385 l 642 408 q 619 518 642 482 q 539 554 596 554 q 453 515 482 554 q 424 404 424 476 l 424 0 l 108 0 z "},"s":{"ha":1072,"x_min":63,"x_max":1003,"o":"m 507 -18 q 208 31 319 -18 q 86 138 124 68 q 63 238 63 181 l 63 243 l 400 243 q 426 197 404 215 q 539 169 461 169 l 542 169 q 650 189 614 169 q 676 233 676 203 q 653 278 676 264 q 539 299 628 293 l 424 307 q 146 386 233 317 q 72 546 72 444 l 72 554 q 92 649 72 607 q 157 721 111 690 q 504 790 263 790 l 539 790 q 911 711 803 790 q 989 549 989 654 l 989 546 l 661 546 q 656 563 661 547 q 635 590 651 578 q 526 614 604 614 l 521 614 q 417 599 444 614 q 390 556 390 582 q 418 511 390 526 q 521 492 449 493 l 633 488 q 928 417 842 479 q 985 348 968 388 q 1003 256 1003 308 l 1003 243 q 986 143 1003 188 q 924 65 969 99 q 544 -18 815 -18 l 507 -18 z "},"t":{"ha":767,"x_min":51,"x_max":694,"o":"m 694 0 l 421 0 q 269 53 325 0 q 214 207 214 106 l 214 560 l 51 560 l 51 774 l 214 774 l 214 1007 l 526 1007 l 526 774 l 694 774 l 694 560 l 526 560 l 526 311 q 542 247 526 265 q 604 229 558 229 l 694 229 l 694 0 z "},"u":{"ha":1183,"x_min":106,"x_max":1075,"o":"m 1075 0 l 763 0 l 763 122 q 658 35 724 71 q 444 -19 560 -19 l 431 -19 q 288 6 350 -19 q 183 74 225 31 q 125 165 144 114 q 106 272 106 217 l 106 774 l 421 774 l 421 379 q 458 268 421 307 q 586 219 503 219 q 717 271 668 219 q 760 390 760 318 l 760 774 l 1075 774 l 1075 0 z "},"v":{"ha":1106,"x_min":15,"x_max":1090,"o":"m 358 0 l 15 774 l 365 774 l 565 242 l 765 774 l 1090 774 l 764 0 l 358 0 z "},"w":{"ha":1647,"x_min":21,"x_max":1625,"o":"m 682 0 l 310 0 l 21 774 l 356 774 l 514 264 l 667 774 l 1011 774 l 1171 265 l 1321 774 l 1625 774 l 1361 0 l 983 0 l 828 467 l 682 0 z "},"x":{"ha":1082,"x_min":0,"x_max":1083,"o":"m 725 0 l 539 222 l 356 0 l 6 0 l 329 392 l 0 774 l 372 774 l 550 558 l 724 774 l 1067 774 l 757 394 l 1083 0 l 725 0 z "},"y":{"ha":1082,"x_min":14,"x_max":1067,"o":"m 161 -54 l 336 -54 q 372 -26 372 -54 q 368 0 372 -15 q 349 42 357 28 l 14 774 l 361 774 l 560 244 l 747 774 l 1067 774 l 719 -71 q 615 -217 678 -171 q 451 -264 553 -264 l 161 -264 l 161 -54 z "},"z":{"ha":1054,"x_min":82,"x_max":975,"o":"m 975 0 l 82 0 l 82 204 l 550 554 l 86 554 l 86 774 l 958 774 l 958 572 l 475 226 l 975 226 l 975 0 z "},"À":{"ha":1400,"x_min":4,"x_max":1396,"o":"m 1042 0 l 961 179 l 415 179 l 336 0 l 4 0 l 474 1033 l 911 1033 l 1396 0 l 1042 0 m 860 407 l 686 793 l 517 407 l 860 407 m 532 1113 l 371 1325 l 722 1325 l 853 1113 l 532 1113 z "},"Á":{"ha":1400,"x_min":4,"x_max":1396,"o":"m 1042 0 l 961 179 l 415 179 l 336 0 l 4 0 l 474 1033 l 911 1033 l 1396 0 l 1042 0 m 860 407 l 686 793 l 517 407 l 860 407 m 850 1113 l 531 1113 l 661 1325 l 1013 1325 l 850 1113 z "},"Â":{"ha":1400,"x_min":4,"x_max":1396,"o":"m 1042 0 l 961 179 l 415 179 l 336 0 l 4 0 l 474 1033 l 911 1033 l 1396 0 l 1042 0 m 860 407 l 686 793 l 517 407 l 860 407 m 876 1325 l 1075 1110 l 776 1110 l 692 1200 l 606 1110 l 313 1110 l 510 1325 l 876 1325 z "},"Ã":{"ha":1400,"x_min":4,"x_max":1396,"o":"m 1042 0 l 961 179 l 415 179 l 336 0 l 4 0 l 474 1033 l 911 1033 l 1396 0 l 1042 0 m 860 407 l 686 793 l 517 407 l 860 407 m 571 1107 l 397 1107 l 397 1224 q 425 1319 397 1279 q 526 1365 458 1365 l 529 1365 q 604 1354 567 1365 q 713 1314 642 1343 q 763 1294 724 1310 q 792 1288 781 1288 q 811 1318 811 1288 l 811 1372 l 985 1372 l 985 1256 q 958 1161 985 1197 q 856 1114 925 1114 l 853 1114 q 778 1125 815 1114 q 669 1165 740 1136 l 619 1186 q 590 1192 604 1192 q 571 1161 571 1192 l 571 1107 z "},"Ä":{"ha":1400,"x_min":4,"x_max":1396,"o":"m 1042 0 l 961 179 l 415 179 l 336 0 l 4 0 l 474 1033 l 911 1033 l 1396 0 l 1042 0 m 860 407 l 686 793 l 517 407 l 860 407 m 651 1315 l 651 1113 l 346 1113 l 346 1315 l 651 1315 m 1038 1315 l 1038 1113 l 732 1113 l 732 1315 l 1038 1315 z "},"Å":{"ha":1400,"x_min":4,"x_max":1396,"o":"m 1042 0 l 961 179 l 415 179 l 336 0 l 4 0 l 474 1033 l 911 1033 l 1396 0 l 1042 0 m 860 407 l 686 793 l 517 407 l 860 407 m 442 1286 q 494 1414 442 1367 q 690 1469 560 1469 q 889 1414 824 1469 q 940 1286 940 1367 q 889 1158 940 1206 q 690 1100 824 1100 q 493 1158 556 1100 q 442 1286 442 1206 m 783 1286 q 760 1339 783 1318 q 690 1360 738 1360 q 622 1339 644 1360 q 599 1286 599 1318 q 622 1231 599 1253 q 690 1208 644 1208 q 760 1231 738 1208 q 783 1286 783 1253 z "},"Æ":{"ha":1850,"x_min":-25,"x_max":1753,"o":"m 819 0 l 819 181 l 432 181 l 324 0 l -25 0 l 619 1033 l 1743 1033 l 1743 796 l 1149 796 l 1149 646 l 1722 646 l 1722 400 l 1149 400 l 1149 240 l 1753 240 l 1753 0 l 819 0 m 819 400 l 819 821 l 565 400 l 819 400 z "},"Ç":{"ha":1446,"x_min":76,"x_max":1372,"o":"m 986 -231 q 942 -340 986 -304 q 735 -389 882 -389 l 528 -389 l 528 -250 l 694 -250 q 734 -242 724 -250 q 744 -217 744 -233 q 694 -185 744 -185 l 572 -185 l 572 -10 q 175 192 303 22 q 100 340 124 260 q 76 499 76 421 l 76 540 q 126 765 76 660 q 313 965 188 894 q 699 1050 463 1050 l 763 1050 q 1251 911 1096 1050 q 1344 782 1315 854 q 1372 632 1372 710 l 1372 625 l 1031 625 q 1019 663 1026 643 q 977 719 1010 692 q 889 768 944 747 q 731 790 832 790 q 485 706 563 790 q 422 531 422 638 l 422 513 q 438 421 422 467 q 486 338 453 375 q 732 246 568 246 q 979 319 903 246 q 1019 376 1008 346 q 1031 414 1026 396 l 1372 414 l 1372 406 q 1324 218 1372 306 q 1139 54 1267 115 q 763 -17 990 -17 l 746 -17 l 746 -72 l 751 -72 q 943 -115 889 -72 q 986 -225 986 -151 l 986 -231 z "},"È":{"ha":1218,"x_min":122,"x_max":1121,"o":"m 481 1113 l 319 1325 l 671 1325 l 801 1113 l 481 1113 m 122 1033 l 1113 1033 l 1113 796 l 451 796 l 451 646 l 1092 646 l 1092 400 l 451 400 l 451 240 l 1121 240 l 1121 0 l 122 0 l 122 1033 z "},"É":{"ha":1218,"x_min":122,"x_max":1121,"o":"m 778 1113 l 458 1113 l 589 1325 l 940 1325 l 778 1113 m 122 1033 l 1113 1033 l 1113 796 l 451 796 l 451 646 l 1092 646 l 1092 400 l 451 400 l 451 240 l 1121 240 l 1121 0 l 122 0 l 122 1033 z "},"Ê":{"ha":1218,"x_min":122,"x_max":1121,"o":"m 803 1325 l 1001 1110 l 703 1110 l 618 1200 l 532 1110 l 239 1110 l 436 1325 l 803 1325 m 122 1033 l 1113 1033 l 1113 796 l 451 796 l 451 646 l 1092 646 l 1092 400 l 451 400 l 451 240 l 1121 240 l 1121 0 l 122 0 l 122 1033 z "},"Ë":{"ha":1218,"x_min":122,"x_max":1121,"o":"m 122 1033 l 1113 1033 l 1113 796 l 451 796 l 451 646 l 1092 646 l 1092 400 l 451 400 l 451 240 l 1121 240 l 1121 0 l 122 0 l 122 1033 m 578 1315 l 578 1113 l 272 1113 l 272 1315 l 578 1315 m 964 1315 l 964 1113 l 658 1113 l 658 1315 l 964 1315 z "},"Ì":{"ha":576,"x_min":-32,"x_max":454,"o":"m 454 1033 l 454 0 l 122 0 l 122 1033 l 454 1033 m 129 1113 l -32 1325 l 319 1325 l 450 1113 l 129 1113 z "},"Í":{"ha":576,"x_min":122,"x_max":610,"o":"m 454 1033 l 454 0 l 122 0 l 122 1033 l 454 1033 m 447 1113 l 128 1113 l 258 1325 l 610 1325 l 447 1113 z "},"Î":{"ha":576,"x_min":-90,"x_max":672,"o":"m 454 1033 l 454 0 l 122 0 l 122 1033 l 454 1033 m 474 1325 l 672 1110 l 374 1110 l 289 1200 l 203 1110 l -90 1110 l 107 1325 l 474 1325 z "},"Ï":{"ha":576,"x_min":-57,"x_max":635,"o":"m 454 1033 l 454 0 l 122 0 l 122 1033 l 454 1033 m 249 1315 l 249 1113 l -57 1113 l -57 1315 l 249 1315 m 635 1315 l 635 1113 l 329 1113 l 329 1315 l 635 1315 z "},"Ñ":{"ha":1486,"x_min":122,"x_max":1364,"o":"m 632 1107 l 458 1107 l 458 1224 q 486 1319 458 1279 q 588 1365 519 1365 l 590 1365 q 665 1354 628 1365 q 774 1314 703 1343 q 824 1294 785 1310 q 853 1288 842 1288 q 872 1318 872 1288 l 872 1372 l 1046 1372 l 1046 1256 q 1019 1161 1046 1197 q 917 1114 986 1114 l 914 1114 q 839 1125 876 1114 q 731 1165 801 1136 l 681 1186 q 651 1192 665 1192 q 632 1161 632 1192 l 632 1107 m 1043 0 l 446 631 l 446 0 l 122 0 l 122 1033 l 461 1033 l 1042 414 l 1042 1033 l 1364 1033 l 1364 0 l 1043 0 z "},"Ò":{"ha":1501,"x_min":76,"x_max":1425,"o":"m 590 1113 l 429 1325 l 781 1325 l 911 1113 l 590 1113 m 782 1050 q 1179 967 1024 1050 q 1374 771 1308 896 q 1425 540 1425 668 l 1425 499 q 1395 319 1425 408 q 1299 160 1365 231 q 782 -17 1132 -17 l 719 -17 q 324 69 478 -17 q 129 269 190 143 q 76 499 76 374 l 76 540 q 129 771 76 669 q 324 967 192 896 q 719 1050 476 1050 l 782 1050 m 1079 529 q 1019 703 1079 638 q 751 792 938 792 q 483 703 568 792 q 422 529 422 638 l 422 511 q 486 336 422 404 q 751 244 571 244 q 1019 336 938 244 q 1079 511 1079 403 l 1079 529 z "},"Ó":{"ha":1501,"x_min":76,"x_max":1425,"o":"m 910 1113 l 590 1113 l 721 1325 l 1072 1325 l 910 1113 m 782 1050 q 1179 967 1024 1050 q 1374 771 1308 896 q 1425 540 1425 668 l 1425 499 q 1395 319 1425 408 q 1299 160 1365 231 q 782 -17 1132 -17 l 719 -17 q 324 69 478 -17 q 129 269 190 143 q 76 499 76 374 l 76 540 q 129 771 76 669 q 324 967 192 896 q 719 1050 476 1050 l 782 1050 m 1079 529 q 1019 703 1079 638 q 751 792 938 792 q 483 703 568 792 q 422 529 422 638 l 422 511 q 486 336 422 404 q 751 244 571 244 q 1019 336 938 244 q 1079 511 1079 403 l 1079 529 z "},"Ô":{"ha":1501,"x_min":76,"x_max":1425,"o":"m 935 1325 l 1133 1110 l 835 1110 l 750 1200 l 664 1110 l 371 1110 l 568 1325 l 935 1325 m 782 1050 q 1179 967 1024 1050 q 1374 771 1308 896 q 1425 540 1425 668 l 1425 499 q 1395 319 1425 408 q 1299 160 1365 231 q 782 -17 1132 -17 l 719 -17 q 324 69 478 -17 q 129 269 190 143 q 76 499 76 374 l 76 540 q 129 771 76 669 q 324 967 192 896 q 719 1050 476 1050 l 782 1050 m 1079 529 q 1019 703 1079 638 q 751 792 938 792 q 483 703 568 792 q 422 529 422 638 l 422 511 q 486 336 422 404 q 751 244 571 244 q 1019 336 938 244 q 1079 511 1079 403 l 1079 529 z "},"Õ":{"ha":1501,"x_min":76,"x_max":1425,"o":"m 631 1107 l 457 1107 l 457 1224 q 485 1319 457 1279 q 586 1365 518 1365 l 589 1365 q 664 1354 626 1365 q 772 1314 701 1343 q 822 1294 783 1310 q 851 1288 840 1288 q 871 1318 871 1288 l 871 1372 l 1044 1372 l 1044 1256 q 1018 1161 1044 1197 q 915 1114 985 1114 l 913 1114 q 838 1125 875 1114 q 729 1165 800 1136 l 679 1186 q 650 1192 664 1192 q 631 1161 631 1192 l 631 1107 m 782 1050 q 1179 967 1024 1050 q 1374 771 1308 896 q 1425 540 1425 668 l 1425 499 q 1395 319 1425 408 q 1299 160 1365 231 q 782 -17 1132 -17 l 719 -17 q 324 69 478 -17 q 129 269 190 143 q 76 499 76 374 l 76 540 q 129 771 76 669 q 324 967 192 896 q 719 1050 476 1050 l 782 1050 m 1079 529 q 1019 703 1079 638 q 751 792 938 792 q 483 703 568 792 q 422 529 422 638 l 422 511 q 486 336 422 404 q 751 244 571 244 q 1019 336 938 244 q 1079 511 1079 403 l 1079 529 z "},"Ö":{"ha":1501,"x_min":76,"x_max":1425,"o":"m 710 1315 l 710 1113 l 404 1113 l 404 1315 l 710 1315 m 1096 1315 l 1096 1113 l 790 1113 l 790 1315 l 1096 1315 m 782 1050 q 1179 967 1024 1050 q 1374 771 1308 896 q 1425 540 1425 668 l 1425 499 q 1395 319 1425 408 q 1299 160 1365 231 q 782 -17 1132 -17 l 719 -17 q 324 69 478 -17 q 129 269 190 143 q 76 499 76 374 l 76 540 q 129 771 76 669 q 324 967 192 896 q 719 1050 476 1050 l 782 1050 m 1079 529 q 1019 703 1079 638 q 751 792 938 792 q 483 703 568 792 q 422 529 422 638 l 422 511 q 486 336 422 404 q 751 244 571 244 q 1019 336 938 244 q 1079 511 1079 403 l 1079 529 z "},"Ù":{"ha":1465,"x_min":117,"x_max":1350,"o":"m 574 1113 l 413 1325 l 764 1325 l 894 1113 l 574 1113 m 715 -15 q 315 79 463 -15 q 150 294 200 153 q 117 525 117 389 l 117 1033 l 447 1033 l 447 529 q 497 350 447 417 q 732 258 563 258 l 739 258 q 972 350 907 258 q 1019 529 1019 415 l 1019 1033 l 1350 1033 l 1350 525 q 1314 294 1350 394 q 1146 79 1264 156 q 756 -15 999 -15 l 715 -15 z "},"Ú":{"ha":1465,"x_min":117,"x_max":1350,"o":"m 892 1113 l 572 1113 l 703 1325 l 1054 1325 l 892 1113 m 715 -15 q 315 79 463 -15 q 150 294 200 153 q 117 525 117 389 l 117 1033 l 447 1033 l 447 529 q 497 350 447 417 q 732 258 563 258 l 739 258 q 972 350 907 258 q 1019 529 1019 415 l 1019 1033 l 1350 1033 l 1350 525 q 1314 294 1350 394 q 1146 79 1264 156 q 756 -15 999 -15 l 715 -15 z "},"Û":{"ha":1465,"x_min":117,"x_max":1350,"o":"m 918 1325 l 1117 1110 l 818 1110 l 733 1200 l 647 1110 l 354 1110 l 551 1325 l 918 1325 m 715 -15 q 315 79 463 -15 q 150 294 200 153 q 117 525 117 389 l 117 1033 l 447 1033 l 447 529 q 497 350 447 417 q 732 258 563 258 l 739 258 q 972 350 907 258 q 1019 529 1019 415 l 1019 1033 l 1350 1033 l 1350 525 q 1314 294 1350 394 q 1146 79 1264 156 q 756 -15 999 -15 l 715 -15 z "},"Ü":{"ha":1465,"x_min":117,"x_max":1350,"o":"m 715 -15 q 315 79 463 -15 q 150 294 200 153 q 117 525 117 389 l 117 1033 l 447 1033 l 447 529 q 497 350 447 417 q 732 258 563 258 l 739 258 q 972 350 907 258 q 1019 529 1019 415 l 1019 1033 l 1350 1033 l 1350 525 q 1314 294 1350 394 q 1146 79 1264 156 q 756 -15 999 -15 l 715 -15 m 693 1315 l 693 1113 l 388 1113 l 388 1315 l 693 1315 m 1079 1315 l 1079 1113 l 774 1113 l 774 1315 l 1079 1315 z "},"Ý":{"ha":1342,"x_min":-12,"x_max":1354,"o":"m 514 0 l 514 374 l -12 1033 l 394 1033 l 692 646 l 990 1033 l 1354 1033 l 844 372 l 844 0 l 514 0 m 850 1113 l 531 1113 l 661 1325 l 1013 1325 l 850 1113 z "},"ß":{"ha":1206,"x_min":108,"x_max":1139,"o":"m 879 614 q 1047 544 979 600 q 1139 339 1139 469 l 1139 324 q 1050 97 1139 176 q 694 0 942 0 l 511 0 l 511 219 l 667 219 q 786 256 753 219 q 813 336 813 283 l 813 338 q 786 414 813 388 q 667 449 751 449 l 511 449 l 511 667 l 636 667 q 738 701 706 667 q 758 764 758 726 l 758 765 q 731 831 758 808 q 597 861 690 861 l 589 861 q 456 824 493 861 q 424 725 424 792 l 424 0 l 108 0 l 108 750 q 124 866 108 813 q 182 963 139 919 q 586 1072 292 1072 l 610 1072 q 982 990 869 1072 q 1068 822 1068 928 l 1068 815 q 1010 678 1068 732 q 879 614 958 631 z "},"à":{"ha":1126,"x_min":67,"x_max":1088,"o":"m 701 101 q 611 31 660 57 q 403 -15 525 -15 l 379 -15 q 143 57 225 -15 q 86 135 106 90 q 67 232 67 181 l 67 238 q 143 400 67 347 q 421 474 222 457 l 636 490 q 681 504 668 493 q 693 536 693 515 l 693 538 q 669 585 693 571 q 549 606 635 606 l 544 606 q 425 576 457 606 q 403 528 403 556 l 86 528 l 86 529 q 111 638 86 590 q 232 744 149 707 q 522 792 343 792 l 567 792 q 936 701 833 792 q 988 624 975 667 q 1001 528 1001 581 l 1001 281 q 1011 238 1001 250 q 1051 226 1021 226 l 1088 226 l 1088 0 l 832 0 q 743 35 781 0 q 701 101 714 60 m 499 167 q 650 218 596 167 q 683 265 672 239 q 693 314 693 290 l 693 363 q 538 332 644 350 q 414 299 444 317 q 381 244 381 281 l 381 242 q 410 187 381 207 q 499 167 439 167 m 572 1068 l 701 854 l 393 854 l 225 1068 l 572 1068 z "},"á":{"ha":1126,"x_min":67,"x_max":1088,"o":"m 701 101 q 611 31 660 57 q 403 -15 525 -15 l 379 -15 q 143 57 225 -15 q 86 135 106 90 q 67 232 67 181 l 67 238 q 143 400 67 347 q 421 474 222 457 l 636 490 q 681 504 668 493 q 693 536 693 515 l 693 538 q 669 585 693 571 q 549 606 635 606 l 544 606 q 425 576 457 606 q 403 528 403 556 l 86 528 l 86 529 q 111 638 86 590 q 232 744 149 707 q 522 792 343 792 l 567 792 q 936 701 833 792 q 988 624 975 667 q 1001 528 1001 581 l 1001 281 q 1011 238 1001 250 q 1051 226 1021 226 l 1088 226 l 1088 0 l 832 0 q 743 35 781 0 q 701 101 714 60 m 499 167 q 650 218 596 167 q 683 265 672 239 q 693 314 693 290 l 693 363 q 538 332 644 350 q 414 299 444 317 q 381 244 381 281 l 381 242 q 410 187 381 207 q 499 167 439 167 m 388 854 l 517 1068 l 864 1068 l 696 854 l 388 854 z "},"â":{"ha":1126,"x_min":67,"x_max":1088,"o":"m 701 101 q 611 31 660 57 q 403 -15 525 -15 l 379 -15 q 143 57 225 -15 q 86 135 106 90 q 67 232 67 181 l 67 238 q 143 400 67 347 q 421 474 222 457 l 636 490 q 681 504 668 493 q 693 536 693 515 l 693 538 q 669 585 693 571 q 549 606 635 606 l 544 606 q 425 576 457 606 q 403 528 403 556 l 86 528 l 86 529 q 111 638 86 590 q 232 744 149 707 q 522 792 343 792 l 567 792 q 936 701 833 792 q 988 624 975 667 q 1001 528 1001 581 l 1001 281 q 1011 238 1001 250 q 1051 226 1021 226 l 1088 226 l 1088 0 l 832 0 q 743 35 781 0 q 701 101 714 60 m 499 167 q 650 218 596 167 q 683 265 672 239 q 693 314 693 290 l 693 363 q 538 332 644 350 q 414 299 444 317 q 381 244 381 281 l 381 242 q 410 187 381 207 q 499 167 439 167 m 732 1068 l 925 853 l 625 853 l 544 944 l 464 853 l 169 853 l 360 1068 l 732 1068 z "},"ã":{"ha":1126,"x_min":67,"x_max":1088,"o":"m 701 101 q 611 31 660 57 q 403 -15 525 -15 l 379 -15 q 143 57 225 -15 q 86 135 106 90 q 67 232 67 181 l 67 238 q 143 400 67 347 q 421 474 222 457 l 636 490 q 681 504 668 493 q 693 536 693 515 l 693 538 q 669 585 693 571 q 549 606 635 606 l 544 606 q 425 576 457 606 q 403 528 403 556 l 86 528 l 86 529 q 111 638 86 590 q 232 744 149 707 q 522 792 343 792 l 567 792 q 936 701 833 792 q 988 624 975 667 q 1001 528 1001 581 l 1001 281 q 1011 238 1001 250 q 1051 226 1021 226 l 1088 226 l 1088 0 l 832 0 q 743 35 781 0 q 701 101 714 60 m 499 167 q 650 218 596 167 q 683 265 672 239 q 693 314 693 290 l 693 363 q 538 332 644 350 q 414 299 444 317 q 381 244 381 281 l 381 242 q 410 187 381 207 q 499 167 439 167 m 828 997 q 801 903 828 940 q 700 856 768 856 l 697 856 q 625 866 658 856 q 528 906 592 876 l 482 928 q 456 935 465 935 q 435 904 435 935 l 435 849 l 263 849 l 263 968 q 289 1063 263 1025 q 389 1110 322 1110 l 393 1110 q 469 1099 435 1110 q 535 1071 503 1086 l 561 1058 l 608 1038 q 633 1031 625 1031 q 654 1060 654 1031 l 654 1117 l 828 1117 l 828 997 z "},"ä":{"ha":1126,"x_min":67,"x_max":1088,"o":"m 701 101 q 611 31 660 57 q 403 -15 525 -15 l 379 -15 q 143 57 225 -15 q 86 135 106 90 q 67 232 67 181 l 67 238 q 143 400 67 347 q 421 474 222 457 l 636 490 q 681 504 668 493 q 693 536 693 515 l 693 538 q 669 585 693 571 q 549 606 635 606 l 544 606 q 425 576 457 606 q 403 528 403 556 l 86 528 l 86 529 q 111 638 86 590 q 232 744 149 707 q 522 792 343 792 l 567 792 q 936 701 833 792 q 988 624 975 667 q 1001 528 1001 581 l 1001 281 q 1011 238 1001 250 q 1051 226 1021 226 l 1088 226 l 1088 0 l 832 0 q 743 35 781 0 q 701 101 714 60 m 499 167 q 650 218 596 167 q 683 265 672 239 q 693 314 693 290 l 693 363 q 538 332 644 350 q 414 299 444 317 q 381 244 381 281 l 381 242 q 410 187 381 207 q 499 167 439 167 m 506 1054 l 506 851 l 204 851 l 204 1054 l 506 1054 m 885 1054 l 885 851 l 583 851 l 583 1054 l 885 1054 z "},"å":{"ha":1126,"x_min":67,"x_max":1088,"o":"m 701 101 q 611 31 660 57 q 403 -15 525 -15 l 379 -15 q 143 57 225 -15 q 86 135 106 90 q 67 232 67 181 l 67 238 q 143 400 67 347 q 421 474 222 457 l 636 490 q 681 504 668 493 q 693 536 693 515 l 693 538 q 669 585 693 571 q 549 606 635 606 l 544 606 q 425 576 457 606 q 403 528 403 556 l 86 528 l 86 529 q 111 638 86 590 q 232 744 149 707 q 522 792 343 792 l 567 792 q 936 701 833 792 q 988 624 975 667 q 1001 528 1001 581 l 1001 281 q 1011 238 1001 250 q 1051 226 1021 226 l 1088 226 l 1088 0 l 832 0 q 743 35 781 0 q 701 101 714 60 m 499 167 q 650 218 596 167 q 683 265 672 239 q 693 314 693 290 l 693 363 q 538 332 644 350 q 414 299 444 317 q 381 244 381 281 l 381 242 q 410 187 381 207 q 499 167 439 167 m 299 1029 q 350 1157 299 1110 q 544 1213 413 1213 q 742 1157 676 1213 q 793 1029 793 1110 q 742 901 793 947 q 544 843 679 843 q 350 901 413 843 q 299 1029 299 947 m 456 1029 q 478 974 456 996 q 544 953 500 953 q 613 974 590 953 q 635 1029 635 996 q 613 1083 635 1063 q 544 1103 590 1103 q 478 1082 500 1103 q 456 1029 456 1061 z "},"æ":{"ha":1782,"x_min":67,"x_max":1715,"o":"m 1713 242 q 1693 165 1713 207 q 1629 85 1674 122 q 1236 -19 1507 -19 l 1181 -19 q 915 28 1026 -19 q 774 131 821 67 q 660 35 732 71 q 425 -15 564 -15 l 401 -15 q 146 57 233 -15 q 67 232 67 121 l 67 238 q 143 400 67 347 q 417 474 222 457 l 625 490 q 669 504 657 493 q 682 536 682 515 q 660 583 682 569 q 542 604 628 604 l 539 604 q 424 575 456 604 q 401 526 401 554 l 86 526 l 86 529 q 154 694 86 632 q 517 790 257 790 l 563 790 q 875 710 785 790 q 1163 792 971 792 l 1224 792 q 1625 656 1507 792 q 1715 354 1715 550 l 1715 326 l 1008 326 q 1067 218 1018 256 q 1218 181 1117 181 q 1350 208 1303 181 q 1375 229 1369 219 l 1383 242 l 1713 242 m 1197 606 q 1064 571 1107 606 q 1011 475 1022 538 l 1381 475 q 1346 564 1381 531 q 1197 606 1300 606 m 493 167 q 639 218 588 167 q 671 265 660 239 q 682 314 682 290 l 682 363 q 532 332 628 349 q 413 299 443 317 q 381 244 381 279 l 381 242 q 408 187 381 207 q 493 167 436 167 z "},"ç":{"ha":1156,"x_min":68,"x_max":1089,"o":"m 836 -231 q 792 -340 836 -304 q 585 -389 732 -389 l 378 -389 l 378 -250 l 544 -250 q 585 -242 575 -250 q 596 -217 596 -233 q 585 -193 596 -201 q 544 -185 574 -185 l 422 -185 l 422 -11 q 133 151 219 19 q 68 381 68 249 l 68 400 q 88 533 68 467 q 156 654 108 600 q 550 794 279 794 l 610 794 q 922 735 799 794 q 1058 604 1018 688 q 1089 472 1089 542 l 1089 471 l 760 471 q 726 533 756 506 q 588 579 678 579 l 575 579 q 433 519 479 579 q 396 393 396 472 l 396 392 q 435 261 396 314 q 578 197 481 197 l 590 197 q 729 247 686 197 q 752 283 744 265 q 760 313 760 301 l 1089 313 q 1058 175 1089 238 q 924 40 1018 89 q 619 -21 806 -21 l 596 -21 l 596 -72 l 601 -72 q 793 -115 739 -72 q 836 -225 836 -151 l 836 -231 z "},"è":{"ha":1174,"x_min":68,"x_max":1107,"o":"m 1104 247 q 1072 144 1101 192 q 935 33 1032 75 q 625 -19 813 -19 l 568 -19 q 165 113 290 -19 q 68 376 68 214 l 68 396 q 163 661 68 560 q 550 792 283 792 l 611 792 q 1018 656 899 792 q 1088 522 1068 597 q 1107 354 1107 446 l 1107 326 l 392 326 q 450 221 403 258 q 607 181 501 181 q 742 208 699 181 q 767 231 760 218 l 775 247 l 1104 247 m 585 604 q 451 572 494 604 q 396 478 408 539 l 771 478 q 736 563 771 532 q 585 604 688 604 m 608 1068 l 738 854 l 429 854 l 261 1068 l 608 1068 z "},"é":{"ha":1174,"x_min":68,"x_max":1107,"o":"m 428 854 l 557 1068 l 904 1068 l 736 854 l 428 854 m 1104 247 q 1072 144 1101 192 q 935 33 1032 75 q 625 -19 813 -19 l 568 -19 q 165 113 290 -19 q 68 376 68 214 l 68 396 q 163 661 68 560 q 550 792 283 792 l 611 792 q 1018 656 899 792 q 1088 522 1068 597 q 1107 354 1107 446 l 1107 326 l 392 326 q 450 221 403 258 q 607 181 501 181 q 742 208 699 181 q 767 231 760 218 l 775 247 l 1104 247 m 585 604 q 451 572 494 604 q 396 478 408 539 l 771 478 q 736 563 771 532 q 585 604 688 604 z "},"ê":{"ha":1174,"x_min":68,"x_max":1107,"o":"m 769 1068 l 963 853 l 663 853 l 582 944 l 501 853 l 207 853 l 397 1068 l 769 1068 m 1104 247 q 1072 144 1101 192 q 935 33 1032 75 q 625 -19 813 -19 l 568 -19 q 165 113 290 -19 q 68 376 68 214 l 68 396 q 163 661 68 560 q 550 792 283 792 l 611 792 q 1018 656 899 792 q 1088 522 1068 597 q 1107 354 1107 446 l 1107 326 l 392 326 q 450 221 403 258 q 607 181 501 181 q 742 208 699 181 q 767 231 760 218 l 775 247 l 1104 247 m 585 604 q 451 572 494 604 q 396 478 408 539 l 771 478 q 736 563 771 532 q 585 604 688 604 z "},"ë":{"ha":1174,"x_min":68,"x_max":1107,"o":"m 543 1054 l 543 851 l 242 851 l 242 1054 l 543 1054 m 922 1054 l 922 851 l 621 851 l 621 1054 l 922 1054 m 1104 247 q 1072 144 1101 192 q 935 33 1032 75 q 625 -19 813 -19 l 568 -19 q 165 113 290 -19 q 68 376 68 214 l 68 396 q 163 661 68 560 q 550 792 283 792 l 611 792 q 1018 656 899 792 q 1088 522 1068 597 q 1107 354 1107 446 l 1107 326 l 392 326 q 450 221 403 258 q 607 181 501 181 q 742 208 699 181 q 767 231 760 218 l 775 247 l 1104 247 m 585 604 q 451 572 494 604 q 396 478 408 539 l 771 478 q 736 563 771 532 q 585 604 688 604 z "},"ì":{"ha":532,"x_min":-43,"x_max":424,"o":"m 293 1068 l 418 854 l 110 854 l -43 1068 l 293 1068 m 424 774 l 424 0 l 108 0 l 108 774 l 424 774 z "},"í":{"ha":532,"x_min":108,"x_max":574,"o":"m 115 854 l 238 1068 l 574 1068 l 422 854 l 115 854 m 424 774 l 424 0 l 108 0 l 108 774 l 424 774 z "},"î":{"ha":532,"x_min":-76,"x_max":613,"o":"m 450 1068 l 613 853 l 333 853 l 265 947 l 199 853 l -76 853 l 85 1068 l 450 1068 m 424 774 l 424 0 l 108 0 l 108 774 l 424 774 z "},"ï":{"ha":532,"x_min":-32,"x_max":564,"o":"m 229 1054 l 229 851 l -32 851 l -32 1054 l 229 1054 m 564 1054 l 564 851 l 303 851 l 303 1054 l 564 1054 m 424 774 l 424 0 l 108 0 l 108 774 l 424 774 z "},"ñ":{"ha":1192,"x_min":108,"x_max":1086,"o":"m 108 774 l 421 774 l 421 651 q 528 739 464 704 q 743 793 628 793 l 757 793 q 901 768 839 793 q 1007 700 964 743 q 1066 608 1046 660 q 1086 500 1086 556 l 1086 0 l 771 0 l 771 394 q 732 507 771 467 q 601 554 685 554 q 468 503 515 554 q 424 383 424 454 l 424 0 l 108 0 l 108 774 m 881 997 q 854 903 881 940 q 753 856 821 856 l 750 856 q 678 866 711 856 q 581 906 644 876 l 535 928 q 508 935 518 935 q 488 904 488 935 l 488 849 l 315 849 l 315 968 q 342 1063 315 1025 q 442 1110 375 1110 l 446 1110 q 522 1099 488 1110 q 588 1071 556 1086 l 614 1058 l 661 1038 q 686 1031 678 1031 q 707 1060 707 1031 l 707 1117 l 881 1117 l 881 997 z "},"ò":{"ha":1190,"x_min":67,"x_max":1124,"o":"m 574 -21 q 244 51 367 -21 q 99 210 144 108 q 67 374 67 281 l 67 393 q 99 558 67 485 q 243 721 144 661 q 572 794 365 794 l 619 794 q 956 721 832 794 q 1096 558 1054 663 q 1124 394 1124 483 l 1124 372 q 1096 210 1124 283 q 954 51 1056 110 q 618 -21 832 -21 l 574 -21 m 601 197 q 757 265 706 197 q 796 390 796 315 q 757 515 796 465 q 601 579 707 579 l 589 579 q 432 515 479 579 q 394 390 394 467 q 432 264 394 314 q 589 197 479 197 l 601 197 m 621 1068 l 750 854 l 442 854 l 274 1068 l 621 1068 z "},"ó":{"ha":1190,"x_min":67,"x_max":1124,"o":"m 440 854 l 569 1068 l 917 1068 l 749 854 l 440 854 m 574 -21 q 244 51 367 -21 q 99 210 144 108 q 67 374 67 281 l 67 393 q 99 558 67 485 q 243 721 144 661 q 572 794 365 794 l 619 794 q 956 721 832 794 q 1096 558 1054 663 q 1124 394 1124 483 l 1124 372 q 1096 210 1124 283 q 954 51 1056 110 q 618 -21 832 -21 l 574 -21 m 601 197 q 757 265 706 197 q 796 390 796 315 q 757 515 796 465 q 601 579 707 579 l 589 579 q 432 515 479 579 q 394 390 394 467 q 432 264 394 314 q 589 197 479 197 l 601 197 z "},"ô":{"ha":1190,"x_min":67,"x_max":1124,"o":"m 782 1068 l 975 853 l 675 853 l 594 944 l 514 853 l 219 853 l 410 1068 l 782 1068 m 574 -21 q 244 51 367 -21 q 99 210 144 108 q 67 374 67 281 l 67 393 q 99 558 67 485 q 243 721 144 661 q 572 794 365 794 l 619 794 q 956 721 832 794 q 1096 558 1054 663 q 1124 394 1124 483 l 1124 372 q 1096 210 1124 283 q 954 51 1056 110 q 618 -21 832 -21 l 574 -21 m 601 197 q 757 265 706 197 q 796 390 796 315 q 757 515 796 465 q 601 579 707 579 l 589 579 q 432 515 479 579 q 394 390 394 467 q 432 264 394 314 q 589 197 479 197 l 601 197 z "},"õ":{"ha":1190,"x_min":67,"x_max":1124,"o":"m 574 -21 q 244 51 367 -21 q 99 210 144 108 q 67 374 67 281 l 67 393 q 99 558 67 485 q 243 721 144 661 q 572 794 365 794 l 619 794 q 956 721 832 794 q 1096 558 1054 663 q 1124 394 1124 483 l 1124 372 q 1096 210 1124 283 q 954 51 1056 110 q 618 -21 832 -21 l 574 -21 m 601 197 q 757 265 706 197 q 796 390 796 315 q 757 515 796 465 q 601 579 707 579 l 589 579 q 432 515 479 579 q 394 390 394 467 q 432 264 394 314 q 589 197 479 197 l 601 197 m 878 997 q 851 903 878 940 q 750 856 818 856 l 747 856 q 675 866 708 856 q 578 906 642 876 l 532 928 q 506 935 515 935 q 485 904 485 935 l 485 849 l 313 849 l 313 968 q 339 1063 313 1025 q 439 1110 372 1110 l 443 1110 q 519 1099 485 1110 q 585 1071 553 1086 l 611 1058 l 658 1038 q 683 1031 675 1031 q 704 1060 704 1031 l 704 1117 l 878 1117 l 878 997 z "},"ö":{"ha":1190,"x_min":67,"x_max":1124,"o":"m 556 1054 l 556 851 l 254 851 l 254 1054 l 556 1054 m 935 1054 l 935 851 l 633 851 l 633 1054 l 935 1054 m 574 -21 q 244 51 367 -21 q 99 210 144 108 q 67 374 67 281 l 67 393 q 99 558 67 485 q 243 721 144 661 q 572 794 365 794 l 619 794 q 956 721 832 794 q 1096 558 1054 663 q 1124 394 1124 483 l 1124 372 q 1096 210 1124 283 q 954 51 1056 110 q 618 -21 832 -21 l 574 -21 m 601 197 q 757 265 706 197 q 796 390 796 315 q 757 515 796 465 q 601 579 707 579 l 589 579 q 432 515 479 579 q 394 390 394 467 q 432 264 394 314 q 589 197 479 197 l 601 197 z "},"ù":{"ha":1183,"x_min":106,"x_max":1075,"o":"m 1075 0 l 763 0 l 763 122 q 658 35 724 71 q 444 -19 560 -19 l 431 -19 q 288 6 350 -19 q 183 74 225 31 q 125 165 144 114 q 106 272 106 217 l 106 774 l 421 774 l 421 379 q 458 268 421 307 q 586 219 503 219 q 717 271 668 219 q 760 390 760 318 l 760 774 l 1075 774 l 1075 0 m 617 1068 l 746 854 l 438 854 l 269 1068 l 617 1068 z "},"ú":{"ha":1183,"x_min":106,"x_max":1075,"o":"m 435 854 l 564 1068 l 911 1068 l 743 854 l 435 854 m 1075 0 l 763 0 l 763 122 q 658 35 724 71 q 444 -19 560 -19 l 431 -19 q 288 6 350 -19 q 183 74 225 31 q 125 165 144 114 q 106 272 106 217 l 106 774 l 421 774 l 421 379 q 458 268 421 307 q 586 219 503 219 q 717 271 668 219 q 760 390 760 318 l 760 774 l 1075 774 l 1075 0 z "},"û":{"ha":1183,"x_min":106,"x_max":1075,"o":"m 778 1068 l 971 853 l 671 853 l 590 944 l 510 853 l 215 853 l 406 1068 l 778 1068 m 1075 0 l 763 0 l 763 122 q 658 35 724 71 q 444 -19 560 -19 l 431 -19 q 288 6 350 -19 q 183 74 225 31 q 125 165 144 114 q 106 272 106 217 l 106 774 l 421 774 l 421 379 q 458 268 421 307 q 586 219 503 219 q 717 271 668 219 q 760 390 760 318 l 760 774 l 1075 774 l 1075 0 z "},"ü":{"ha":1183,"x_min":106,"x_max":1075,"o":"m 551 1054 l 551 851 l 250 851 l 250 1054 l 551 1054 m 931 1054 l 931 851 l 629 851 l 629 1054 l 931 1054 m 1075 0 l 763 0 l 763 122 q 658 35 724 71 q 444 -19 560 -19 l 431 -19 q 288 6 350 -19 q 183 74 225 31 q 125 165 144 114 q 106 272 106 217 l 106 774 l 421 774 l 421 379 q 458 268 421 307 q 586 219 503 219 q 717 271 668 219 q 760 390 760 318 l 760 774 l 1075 774 l 1075 0 z "},"ý":{"ha":1082,"x_min":14,"x_max":1067,"o":"m 161 -54 l 336 -54 q 372 -26 372 -54 q 368 0 372 -15 q 349 42 357 28 l 14 774 l 361 774 l 560 244 l 747 774 l 1067 774 l 719 -71 q 615 -217 678 -171 q 451 -264 553 -264 l 161 -264 l 161 -54 m 400 854 l 529 1068 l 876 1068 l 708 854 l 400 854 z "},"ÿ":{"ha":1082,"x_min":14,"x_max":1067,"o":"m 161 -54 l 336 -54 q 372 -26 372 -54 q 368 0 372 -15 q 349 42 357 28 l 14 774 l 361 774 l 560 244 l 747 774 l 1067 774 l 719 -71 q 615 -217 678 -171 q 451 -264 553 -264 l 161 -264 l 161 -54 m 515 1054 l 515 851 l 214 851 l 214 1054 l 515 1054 m 894 1054 l 894 851 l 593 851 l 593 1054 l 894 1054 z "},"Ā":{"ha":1400,"x_min":4,"x_max":1396,"o":"m 1042 0 l 961 179 l 415 179 l 336 0 l 4 0 l 474 1033 l 911 1033 l 1396 0 l 1042 0 m 860 407 l 686 793 l 517 407 l 860 407 m 413 1131 l 413 1306 l 971 1306 l 971 1131 l 413 1131 z "},"ā":{"ha":1126,"x_min":67,"x_max":1088,"o":"m 701 101 q 611 31 660 57 q 403 -15 525 -15 l 379 -15 q 143 57 225 -15 q 86 135 106 90 q 67 232 67 181 l 67 238 q 143 400 67 347 q 421 474 222 457 l 636 490 q 681 504 668 493 q 693 536 693 515 l 693 538 q 669 585 693 571 q 549 606 635 606 l 544 606 q 425 576 457 606 q 403 528 403 556 l 86 528 l 86 529 q 111 638 86 590 q 232 744 149 707 q 522 792 343 792 l 567 792 q 936 701 833 792 q 988 624 975 667 q 1001 528 1001 581 l 1001 281 q 1011 238 1001 250 q 1051 226 1021 226 l 1088 226 l 1088 0 l 832 0 q 743 35 781 0 q 701 101 714 60 m 499 167 q 650 218 596 167 q 683 265 672 239 q 693 314 693 290 l 693 363 q 538 332 644 350 q 414 299 444 317 q 381 244 381 281 l 381 242 q 410 187 381 207 q 499 167 439 167 m 272 868 l 272 1043 l 821 1043 l 821 868 l 272 868 z "},"Ă":{"ha":1400,"x_min":4,"x_max":1396,"o":"m 1042 0 l 961 179 l 415 179 l 336 0 l 4 0 l 474 1033 l 911 1033 l 1396 0 l 1042 0 m 860 407 l 686 793 l 517 407 l 860 407 m 672 1106 q 438 1194 510 1106 q 398 1267 410 1228 q 386 1343 386 1307 l 386 1346 l 607 1346 q 625 1299 610 1317 q 692 1269 644 1269 l 693 1269 q 757 1299 738 1269 q 774 1346 771 1317 l 993 1346 l 993 1343 q 979 1268 993 1308 q 935 1194 965 1228 q 708 1106 858 1106 l 672 1106 z "},"ă":{"ha":1126,"x_min":67,"x_max":1088,"o":"m 701 101 q 611 31 660 57 q 403 -15 525 -15 l 379 -15 q 143 57 225 -15 q 86 135 106 90 q 67 232 67 181 l 67 238 q 143 400 67 347 q 421 474 222 457 l 636 490 q 681 504 668 493 q 693 536 693 515 l 693 538 q 669 585 693 571 q 549 606 635 606 l 544 606 q 425 576 457 606 q 403 528 403 556 l 86 528 l 86 529 q 111 638 86 590 q 232 744 149 707 q 522 792 343 792 l 567 792 q 936 701 833 792 q 988 624 975 667 q 1001 528 1001 581 l 1001 281 q 1011 238 1001 250 q 1051 226 1021 226 l 1088 226 l 1088 0 l 832 0 q 743 35 781 0 q 701 101 714 60 m 499 167 q 650 218 596 167 q 683 265 672 239 q 693 314 693 290 l 693 363 q 538 332 644 350 q 414 299 444 317 q 381 244 381 281 l 381 242 q 410 187 381 207 q 499 167 439 167 m 531 847 q 299 936 371 847 q 259 1010 271 971 q 247 1086 247 1050 l 247 1089 l 469 1089 q 483 1042 469 1063 q 549 1011 504 1011 l 550 1011 q 613 1042 592 1011 q 626 1089 626 1063 l 847 1089 l 847 1086 q 834 1010 847 1050 q 792 936 821 971 q 565 847 715 847 l 531 847 z "},"Ą":{"ha":1400,"x_min":4,"x_max":1406,"o":"m 1042 0 l 961 179 l 415 179 l 336 0 l 4 0 l 474 1033 l 911 1033 l 1396 0 l 1042 0 m 860 407 l 686 793 l 517 407 l 860 407 m 1182 -265 q 1003 -162 1003 -265 l 1003 -160 q 1068 -67 1003 -103 q 1263 0 1133 -31 l 1396 0 q 1322 -47 1367 -17 q 1296 -90 1296 -68 q 1349 -124 1296 -124 l 1406 -124 l 1406 -265 l 1182 -265 z "},"ą":{"ha":1126,"x_min":67,"x_max":1097,"o":"m 1097 -124 l 1097 -265 l 874 -265 q 694 -162 694 -265 l 694 -160 q 760 -67 694 -103 q 954 0 825 -31 l 832 0 q 743 35 781 0 q 701 101 714 60 q 611 31 660 57 q 403 -15 525 -15 l 379 -15 q 143 57 225 -15 q 86 135 106 90 q 67 232 67 181 l 67 238 q 143 400 67 347 q 421 474 222 457 l 636 490 q 681 504 668 493 q 693 536 693 515 l 693 538 q 669 585 693 571 q 549 606 635 606 l 544 606 q 425 576 457 606 q 403 528 403 556 l 86 528 l 86 529 q 111 638 86 590 q 232 744 149 707 q 522 792 343 792 l 567 792 q 936 701 833 792 q 988 624 975 667 q 1001 528 1001 581 l 1001 281 q 1011 238 1001 250 q 1051 226 1021 226 l 1088 226 l 1088 0 q 1014 -47 1058 -17 q 988 -90 988 -68 q 1040 -124 988 -124 l 1097 -124 m 693 363 q 538 332 644 350 q 414 299 444 317 q 381 244 381 281 l 381 242 q 410 187 381 207 q 499 167 439 167 q 650 218 596 167 q 683 265 672 239 q 693 314 693 290 l 693 363 z "},"Ć":{"ha":1446,"x_min":76,"x_max":1372,"o":"m 699 -17 q 314 71 463 -17 q 126 274 185 147 q 76 499 76 379 l 76 540 q 126 765 76 660 q 313 965 188 894 q 699 1050 463 1050 l 763 1050 q 1251 911 1096 1050 q 1344 782 1315 854 q 1372 632 1372 710 l 1372 625 l 1031 625 q 1019 663 1026 643 q 977 719 1010 692 q 889 768 944 747 q 731 790 832 790 q 485 706 563 790 q 422 531 422 638 l 422 513 q 438 421 422 467 q 486 338 453 375 q 732 246 568 246 q 979 319 903 246 q 1019 376 1008 346 q 1031 414 1026 396 l 1372 414 l 1372 406 q 1324 218 1372 306 q 1139 54 1267 115 q 763 -17 990 -17 l 699 -17 m 889 1113 l 569 1113 l 700 1325 l 1051 1325 l 889 1113 z "},"ć":{"ha":1156,"x_min":68,"x_max":1089,"o":"m 425 854 l 554 1068 l 901 1068 l 733 854 l 425 854 m 1089 313 q 1058 175 1089 238 q 924 40 1018 89 q 619 -21 806 -21 l 551 -21 q 156 122 276 -21 q 88 247 108 179 q 68 381 68 314 l 68 400 q 88 533 68 467 q 156 654 108 600 q 550 794 279 794 l 610 794 q 922 735 799 794 q 1058 604 1018 688 q 1089 472 1089 542 l 1089 471 l 760 471 q 726 533 756 506 q 588 579 678 579 l 575 579 q 433 519 479 579 q 396 393 396 472 l 396 392 q 435 261 396 314 q 578 197 481 197 l 590 197 q 729 247 686 197 q 752 283 744 265 q 760 313 760 301 l 1089 313 z "},"Ĉ":{"ha":1446,"x_min":76,"x_max":1372,"o":"m 915 1325 l 1114 1110 l 815 1110 l 731 1200 l 644 1110 l 351 1110 l 549 1325 l 915 1325 m 699 -17 q 314 71 463 -17 q 126 274 185 147 q 76 499 76 379 l 76 540 q 126 765 76 660 q 313 965 188 894 q 699 1050 463 1050 l 763 1050 q 1251 911 1096 1050 q 1344 782 1315 854 q 1372 632 1372 710 l 1372 625 l 1031 625 q 1019 663 1026 643 q 977 719 1010 692 q 889 768 944 747 q 731 790 832 790 q 485 706 563 790 q 422 531 422 638 l 422 513 q 438 421 422 467 q 486 338 453 375 q 732 246 568 246 q 979 319 903 246 q 1019 376 1008 346 q 1031 414 1026 396 l 1372 414 l 1372 406 q 1324 218 1372 306 q 1139 54 1267 115 q 763 -17 990 -17 l 699 -17 z "},"ĉ":{"ha":1156,"x_min":68,"x_max":1089,"o":"m 767 1068 l 960 853 l 660 853 l 579 944 l 499 853 l 204 853 l 394 1068 l 767 1068 m 1089 313 q 1058 175 1089 238 q 924 40 1018 89 q 619 -21 806 -21 l 551 -21 q 156 122 276 -21 q 88 247 108 179 q 68 381 68 314 l 68 400 q 88 533 68 467 q 156 654 108 600 q 550 794 279 794 l 610 794 q 922 735 799 794 q 1058 604 1018 688 q 1089 472 1089 542 l 1089 471 l 760 471 q 726 533 756 506 q 588 579 678 579 l 575 579 q 433 519 479 579 q 396 393 396 472 l 396 392 q 435 261 396 314 q 578 197 481 197 l 590 197 q 729 247 686 197 q 752 283 744 265 q 760 313 760 301 l 1089 313 z "},"Ċ":{"ha":1446,"x_min":76,"x_max":1372,"o":"m 699 -17 q 314 71 463 -17 q 126 274 185 147 q 76 499 76 379 l 76 540 q 126 765 76 660 q 313 965 188 894 q 699 1050 463 1050 l 763 1050 q 1251 911 1096 1050 q 1344 782 1315 854 q 1372 632 1372 710 l 1372 625 l 1031 625 q 1019 663 1026 643 q 977 719 1010 692 q 889 768 944 747 q 731 790 832 790 q 485 706 563 790 q 422 531 422 638 l 422 513 q 438 421 422 467 q 486 338 453 375 q 732 246 568 246 q 979 319 903 246 q 1019 376 1008 346 q 1031 414 1026 396 l 1372 414 l 1372 406 q 1324 218 1372 306 q 1139 54 1267 115 q 763 -17 990 -17 l 699 -17 m 892 1315 l 892 1113 l 572 1113 l 572 1315 l 892 1315 z "},"ċ":{"ha":1156,"x_min":68,"x_max":1089,"o":"m 1089 313 q 1058 175 1089 238 q 924 40 1018 89 q 619 -21 806 -21 l 551 -21 q 156 122 276 -21 q 88 247 108 179 q 68 381 68 314 l 68 400 q 88 533 68 467 q 156 654 108 600 q 550 794 279 794 l 610 794 q 922 735 799 794 q 1058 604 1018 688 q 1089 472 1089 542 l 1089 471 l 760 471 q 726 533 756 506 q 588 579 678 579 l 575 579 q 433 519 479 579 q 396 393 396 472 l 396 392 q 435 261 396 314 q 578 197 481 197 l 590 197 q 729 247 686 197 q 752 283 744 265 q 760 313 760 301 l 1089 313 m 740 1054 l 740 851 l 421 851 l 421 1054 l 740 1054 z "},"Č":{"ha":1446,"x_min":76,"x_max":1372,"o":"m 546 1113 l 347 1325 l 647 1325 l 732 1235 l 818 1325 l 1113 1325 l 915 1113 l 546 1113 m 699 -17 q 314 71 463 -17 q 126 274 185 147 q 76 499 76 379 l 76 540 q 126 765 76 660 q 313 965 188 894 q 699 1050 463 1050 l 763 1050 q 1251 911 1096 1050 q 1344 782 1315 854 q 1372 632 1372 710 l 1372 625 l 1031 625 q 1019 663 1026 643 q 977 719 1010 692 q 889 768 944 747 q 731 790 832 790 q 485 706 563 790 q 422 531 422 638 l 422 513 q 438 421 422 467 q 486 338 453 375 q 732 246 568 246 q 979 319 903 246 q 1019 376 1008 346 q 1031 414 1026 396 l 1372 414 l 1372 406 q 1324 218 1372 306 q 1139 54 1267 115 q 763 -17 990 -17 l 699 -17 z "},"č":{"ha":1156,"x_min":68,"x_max":1089,"o":"m 392 854 l 199 1068 l 499 1068 l 579 978 l 660 1068 l 954 1068 l 764 854 l 392 854 m 1089 313 q 1058 175 1089 238 q 924 40 1018 89 q 619 -21 806 -21 l 551 -21 q 156 122 276 -21 q 88 247 108 179 q 68 381 68 314 l 68 400 q 88 533 68 467 q 156 654 108 600 q 550 794 279 794 l 610 794 q 922 735 799 794 q 1058 604 1018 688 q 1089 472 1089 542 l 1089 471 l 760 471 q 726 533 756 506 q 588 579 678 579 l 575 579 q 433 519 479 579 q 396 393 396 472 l 396 392 q 435 261 396 314 q 578 197 481 197 l 590 197 q 729 247 686 197 q 752 283 744 265 q 760 313 760 301 l 1089 313 z "},"Ē":{"ha":1218,"x_min":122,"x_max":1121,"o":"m 122 1033 l 1113 1033 l 1113 796 l 451 796 l 451 646 l 1092 646 l 1092 400 l 451 400 l 451 240 l 1121 240 l 1121 0 l 122 0 l 122 1033 m 339 1131 l 339 1306 l 897 1306 l 897 1131 l 339 1131 z "},"ē":{"ha":1174,"x_min":68,"x_max":1107,"o":"m 1104 247 q 1072 144 1101 192 q 935 33 1032 75 q 625 -19 813 -19 l 568 -19 q 165 113 290 -19 q 68 376 68 214 l 68 396 q 163 661 68 560 q 550 792 283 792 l 611 792 q 1018 656 899 792 q 1088 522 1068 597 q 1107 354 1107 446 l 1107 326 l 392 326 q 450 221 403 258 q 607 181 501 181 q 742 208 699 181 q 767 231 760 218 l 775 247 l 1104 247 m 585 604 q 451 572 494 604 q 396 478 408 539 l 771 478 q 736 563 771 532 q 585 604 688 604 m 307 868 l 307 1043 l 856 1043 l 856 868 l 307 868 z "},"Ĕ":{"ha":1218,"x_min":122,"x_max":1121,"o":"m 122 1033 l 1113 1033 l 1113 796 l 451 796 l 451 646 l 1092 646 l 1092 400 l 451 400 l 451 240 l 1121 240 l 1121 0 l 122 0 l 122 1033 m 599 1106 q 364 1194 436 1106 q 324 1267 336 1228 q 313 1343 313 1307 l 313 1346 l 533 1346 q 551 1299 536 1317 q 618 1269 571 1269 l 619 1269 q 683 1299 664 1269 q 700 1346 697 1317 l 919 1346 l 919 1343 q 906 1268 919 1308 q 861 1194 892 1228 q 635 1106 785 1106 l 599 1106 z "},"ĕ":{"ha":1174,"x_min":68,"x_max":1107,"o":"m 1104 247 q 1072 144 1101 192 q 935 33 1032 75 q 625 -19 813 -19 l 568 -19 q 165 113 290 -19 q 68 376 68 214 l 68 396 q 163 661 68 560 q 550 792 283 792 l 611 792 q 1018 656 899 792 q 1088 522 1068 597 q 1107 354 1107 446 l 1107 326 l 392 326 q 450 221 403 258 q 607 181 501 181 q 742 208 699 181 q 767 231 760 218 l 775 247 l 1104 247 m 585 604 q 451 572 494 604 q 396 478 408 539 l 771 478 q 736 563 771 532 q 585 604 688 604 m 564 847 q 332 936 404 847 q 292 1010 304 971 q 281 1086 281 1050 l 281 1089 l 503 1089 q 517 1042 503 1063 q 582 1011 538 1011 l 583 1011 q 646 1042 625 1011 q 660 1089 660 1063 l 881 1089 l 881 1086 q 867 1010 881 1050 q 825 936 854 971 q 599 847 749 847 l 564 847 z "},"Ė":{"ha":1218,"x_min":122,"x_max":1121,"o":"m 779 1315 l 779 1113 l 460 1113 l 460 1315 l 779 1315 m 122 1033 l 1113 1033 l 1113 796 l 451 796 l 451 646 l 1092 646 l 1092 400 l 451 400 l 451 240 l 1121 240 l 1121 0 l 122 0 l 122 1033 z "},"ė":{"ha":1174,"x_min":68,"x_max":1107,"o":"m 1104 247 q 1072 144 1101 192 q 935 33 1032 75 q 625 -19 813 -19 l 568 -19 q 165 113 290 -19 q 68 376 68 214 l 68 396 q 163 661 68 560 q 550 792 283 792 l 611 792 q 1018 656 899 792 q 1088 522 1068 597 q 1107 354 1107 446 l 1107 326 l 392 326 q 450 221 403 258 q 607 181 501 181 q 742 208 699 181 q 767 231 760 218 l 775 247 l 1104 247 m 585 604 q 451 572 494 604 q 396 478 408 539 l 771 478 q 736 563 771 532 q 585 604 688 604 m 743 1054 l 743 851 l 424 851 l 424 1054 l 743 1054 z "},"Ę":{"ha":1218,"x_min":122,"x_max":1121,"o":"m 774 -265 q 594 -162 594 -265 l 594 -160 q 660 -67 594 -103 q 854 0 725 -31 l 988 0 q 914 -47 958 -17 q 888 -90 888 -68 q 940 -124 888 -124 l 997 -124 l 997 -265 l 774 -265 m 122 1033 l 1113 1033 l 1113 796 l 451 796 l 451 646 l 1092 646 l 1092 400 l 451 400 l 451 240 l 1121 240 l 1121 0 l 122 0 l 122 1033 z "},"ę":{"ha":1174,"x_min":68,"x_max":1107,"o":"m 938 -265 l 711 -265 q 531 -162 531 -265 l 531 -158 q 581 -76 531 -111 q 739 -12 632 -42 q 625 -17 688 -17 l 568 -17 q 165 114 292 -17 q 68 378 68 215 l 68 397 q 163 663 68 561 q 550 793 283 793 l 611 793 q 1018 657 899 793 q 1088 523 1068 599 q 1107 356 1107 447 l 1107 328 l 392 328 q 450 222 403 260 q 607 182 501 182 q 742 211 700 182 q 767 233 760 221 l 775 249 l 1104 249 q 1069 143 1101 194 q 944 22 1035 86 q 853 -43 872 -25 q 826 -87 826 -68 q 881 -122 826 -122 l 938 -122 l 938 -265 m 585 607 q 451 574 494 607 q 396 479 408 542 l 771 479 q 736 565 771 532 q 585 607 690 607 z "},"Ě":{"ha":1218,"x_min":122,"x_max":1121,"o":"m 433 1113 l 235 1325 l 535 1325 l 619 1235 l 706 1325 l 1000 1325 l 803 1113 l 433 1113 m 122 1033 l 1113 1033 l 1113 796 l 451 796 l 451 646 l 1092 646 l 1092 400 l 451 400 l 451 240 l 1121 240 l 1121 0 l 122 0 l 122 1033 z "},"ě":{"ha":1174,"x_min":68,"x_max":1107,"o":"m 394 854 l 201 1068 l 501 1068 l 582 978 l 663 1068 l 957 1068 l 767 854 l 394 854 m 1104 247 q 1072 144 1101 192 q 935 33 1032 75 q 625 -19 813 -19 l 568 -19 q 165 113 290 -19 q 68 376 68 214 l 68 396 q 163 661 68 560 q 550 792 283 792 l 611 792 q 1018 656 899 792 q 1088 522 1068 597 q 1107 354 1107 446 l 1107 326 l 392 326 q 450 221 403 258 q 607 181 501 181 q 742 208 699 181 q 767 231 760 218 l 775 247 l 1104 247 m 585 604 q 451 572 494 604 q 396 478 408 539 l 771 478 q 736 563 771 532 q 585 604 688 604 z "},"Ĝ":{"ha":1499,"x_min":76,"x_max":1393,"o":"m 919 1325 l 1118 1110 l 819 1110 l 735 1200 l 649 1110 l 356 1110 l 553 1325 l 919 1325 m 682 -15 q 206 157 365 -15 q 108 319 139 228 q 76 504 76 410 l 76 538 q 131 769 76 663 q 324 967 192 896 q 711 1049 478 1049 l 758 1049 q 1256 921 1092 1049 q 1351 805 1321 869 q 1381 675 1381 740 l 1381 671 l 1035 671 l 1019 701 q 886 778 989 750 q 736 793 828 793 q 486 711 568 793 q 421 531 421 644 l 421 514 q 438 416 421 464 q 490 331 454 368 q 742 240 574 240 q 974 299 893 240 q 1033 382 1021 335 l 744 382 l 744 571 l 1393 571 l 1393 0 l 1146 0 q 1131 69 1143 28 q 1104 138 1125 89 q 990 49 1053 81 q 706 -15 868 -15 l 682 -15 z "},"ĝ":{"ha":1215,"x_min":71,"x_max":1107,"o":"m 771 1068 l 964 853 l 664 853 l 583 944 l 503 853 l 208 853 l 399 1068 l 771 1068 m 586 -285 q 192 -190 306 -285 q 115 -29 115 -128 l 115 -24 l 457 -24 q 490 -56 467 -44 q 607 -75 526 -75 l 621 -75 q 753 -35 711 -75 q 794 75 794 6 l 794 129 q 707 67 754 89 q 501 26 621 26 l 482 26 q 160 146 268 26 q 92 262 114 196 q 71 397 71 328 l 71 421 q 93 558 71 492 q 161 674 115 624 q 475 789 267 789 l 490 789 q 700 754 611 789 q 765 719 742 738 q 793 697 789 700 l 793 774 l 1107 774 l 1107 88 q 1006 -178 1107 -85 q 631 -285 888 -285 l 586 -285 m 590 575 q 436 521 486 575 q 397 410 397 476 l 397 407 q 438 297 397 342 q 590 240 488 240 l 604 240 q 754 294 704 240 q 796 404 796 340 l 796 410 q 754 521 796 475 q 603 575 703 575 l 590 575 z "},"Ğ":{"ha":1499,"x_min":76,"x_max":1393,"o":"m 715 1106 q 481 1194 553 1106 q 441 1267 453 1228 q 429 1343 429 1307 l 429 1346 l 650 1346 q 668 1299 653 1317 q 735 1269 688 1269 l 736 1269 q 800 1299 781 1269 q 817 1346 814 1317 l 1036 1346 l 1036 1343 q 1022 1268 1036 1308 q 978 1194 1008 1228 q 751 1106 901 1106 l 715 1106 m 682 -15 q 206 157 365 -15 q 108 319 139 228 q 76 504 76 410 l 76 538 q 131 769 76 663 q 324 967 192 896 q 711 1049 478 1049 l 758 1049 q 1256 921 1092 1049 q 1351 805 1321 869 q 1381 675 1381 740 l 1381 671 l 1035 671 l 1019 701 q 886 778 989 750 q 736 793 828 793 q 486 711 568 793 q 421 531 421 644 l 421 514 q 438 416 421 464 q 490 331 454 368 q 742 240 574 240 q 974 299 893 240 q 1033 382 1021 335 l 744 382 l 744 571 l 1393 571 l 1393 0 l 1146 0 q 1131 69 1143 28 q 1104 138 1125 89 q 990 49 1053 81 q 706 -15 868 -15 l 682 -15 z "},"ğ":{"ha":1215,"x_min":71,"x_max":1107,"o":"m 586 -285 q 192 -190 306 -285 q 115 -29 115 -128 l 115 -24 l 457 -24 q 490 -56 467 -44 q 607 -75 526 -75 l 621 -75 q 753 -35 711 -75 q 794 75 794 6 l 794 129 q 707 67 754 89 q 501 26 621 26 l 482 26 q 160 146 268 26 q 92 262 114 196 q 71 397 71 328 l 71 421 q 93 558 71 492 q 161 674 115 624 q 475 789 267 789 l 490 789 q 700 754 611 789 q 765 719 742 738 q 793 697 789 700 l 793 774 l 1107 774 l 1107 88 q 1006 -178 1107 -85 q 631 -285 888 -285 l 586 -285 m 590 575 q 436 521 486 575 q 397 410 397 476 l 397 407 q 438 297 397 342 q 590 240 488 240 l 604 240 q 754 294 704 240 q 796 404 796 340 l 796 410 q 754 521 796 475 q 603 575 703 575 l 590 575 m 571 847 q 339 936 411 847 q 299 1010 311 971 q 288 1086 288 1050 l 288 1089 l 510 1089 q 524 1042 510 1063 q 589 1011 544 1011 l 590 1011 q 653 1042 632 1011 q 667 1089 667 1063 l 888 1089 l 888 1086 q 874 1010 888 1050 q 832 936 861 971 q 606 847 756 847 l 571 847 z "},"Ġ":{"ha":1499,"x_min":76,"x_max":1393,"o":"m 896 1315 l 896 1113 l 576 1113 l 576 1315 l 896 1315 m 682 -15 q 206 157 365 -15 q 108 319 139 228 q 76 504 76 410 l 76 538 q 131 769 76 663 q 324 967 192 896 q 711 1049 478 1049 l 758 1049 q 1256 921 1092 1049 q 1351 805 1321 869 q 1381 675 1381 740 l 1381 671 l 1035 671 l 1019 701 q 886 778 989 750 q 736 793 828 793 q 486 711 568 793 q 421 531 421 644 l 421 514 q 438 416 421 464 q 490 331 454 368 q 742 240 574 240 q 974 299 893 240 q 1033 382 1021 335 l 744 382 l 744 571 l 1393 571 l 1393 0 l 1146 0 q 1131 69 1143 28 q 1104 138 1125 89 q 990 49 1053 81 q 706 -15 868 -15 l 682 -15 z "},"ġ":{"ha":1215,"x_min":71,"x_max":1107,"o":"m 586 -285 q 192 -190 306 -285 q 115 -29 115 -128 l 115 -24 l 457 -24 q 490 -56 467 -44 q 607 -75 526 -75 l 621 -75 q 753 -35 711 -75 q 794 75 794 6 l 794 129 q 707 67 754 89 q 501 26 621 26 l 482 26 q 160 146 268 26 q 92 262 114 196 q 71 397 71 328 l 71 421 q 93 558 71 492 q 161 674 115 624 q 475 789 267 789 l 490 789 q 700 754 611 789 q 765 719 742 738 q 793 697 789 700 l 793 774 l 1107 774 l 1107 88 q 1006 -178 1107 -85 q 631 -285 888 -285 l 586 -285 m 590 575 q 436 521 486 575 q 397 410 397 476 l 397 407 q 438 297 397 342 q 590 240 488 240 l 604 240 q 754 294 704 240 q 796 404 796 340 l 796 410 q 754 521 796 475 q 603 575 703 575 l 590 575 m 743 1054 l 743 851 l 424 851 l 424 1054 l 743 1054 z "},"Ģ":{"ha":1499,"x_min":76,"x_max":1393,"o":"m 669 -397 q 713 -281 704 -340 l 565 -281 l 565 -79 l 904 -79 l 904 -235 q 888 -321 904 -276 q 849 -397 871 -365 l 669 -397 m 682 -15 q 206 157 365 -15 q 108 319 139 228 q 76 504 76 410 l 76 538 q 131 769 76 663 q 324 967 192 896 q 711 1049 478 1049 l 758 1049 q 1256 921 1092 1049 q 1351 805 1321 869 q 1381 675 1381 740 l 1381 671 l 1035 671 l 1019 701 q 886 778 989 750 q 736 793 828 793 q 486 711 568 793 q 421 531 421 644 l 421 514 q 438 416 421 464 q 490 331 454 368 q 742 240 574 240 q 974 299 893 240 q 1033 382 1021 335 l 744 382 l 744 571 l 1393 571 l 1393 0 l 1146 0 q 1131 69 1143 28 q 1104 138 1125 89 q 990 49 1053 81 q 706 -15 868 -15 l 682 -15 z "},"ģ":{"ha":1215,"x_min":71,"x_max":1107,"o":"m 644 1172 q 603 1056 610 1107 l 749 1056 l 749 854 l 413 854 l 413 1011 q 429 1096 413 1051 q 468 1172 446 1140 l 644 1172 m 586 -285 q 192 -190 306 -285 q 115 -29 115 -128 l 115 -24 l 457 -24 q 490 -56 467 -44 q 607 -75 526 -75 l 621 -75 q 753 -35 711 -75 q 794 75 794 6 l 794 129 q 707 67 754 89 q 501 26 621 26 l 482 26 q 160 146 268 26 q 92 262 114 196 q 71 397 71 328 l 71 421 q 93 558 71 492 q 161 674 115 624 q 475 789 267 789 l 490 789 q 700 754 611 789 q 765 719 742 738 q 793 697 789 700 l 793 774 l 1107 774 l 1107 88 q 1006 -178 1107 -85 q 631 -285 888 -285 l 586 -285 m 590 575 q 436 521 486 575 q 397 410 397 476 l 397 407 q 438 297 397 342 q 590 240 488 240 l 604 240 q 754 294 704 240 q 796 404 796 340 l 796 410 q 754 521 796 475 q 603 575 703 575 l 590 575 z "},"Ĥ":{"ha":1457,"x_min":122,"x_max":1335,"o":"m 122 0 l 122 1033 l 454 1033 l 454 660 l 1003 660 l 1003 1033 l 1335 1033 l 1335 0 l 1003 0 l 1003 403 l 454 403 l 454 0 l 122 0 m 913 1325 l 1111 1110 l 813 1110 l 728 1200 l 642 1110 l 349 1110 l 546 1325 l 913 1325 z "},"ĥ":{"ha":1192,"x_min":108,"x_max":1086,"o":"m 692 1347 l 885 1132 l 585 1132 l 504 1224 l 424 1132 l 129 1132 l 319 1347 l 692 1347 m 108 1051 l 424 1051 l 424 654 q 529 740 464 704 q 743 793 629 793 l 757 793 q 901 768 839 793 q 1007 700 964 743 q 1066 608 1046 660 q 1086 500 1086 556 l 1086 0 l 771 0 l 771 394 q 732 507 771 467 q 601 554 685 554 q 468 503 515 554 q 424 383 424 454 l 424 0 l 108 0 l 108 1051 z "},"Ĩ":{"ha":576,"x_min":-6,"x_max":582,"o":"m 454 1033 l 454 0 l 122 0 l 122 1033 l 454 1033 m 168 1107 l -6 1107 l -6 1224 q 22 1319 -6 1279 q 124 1365 56 1365 l 126 1365 q 201 1354 164 1365 q 310 1314 239 1343 q 360 1294 321 1310 q 389 1288 378 1288 q 408 1318 408 1288 l 408 1372 l 582 1372 l 582 1256 q 556 1161 582 1197 q 453 1114 522 1114 l 450 1114 q 375 1125 413 1114 q 267 1165 338 1136 l 217 1186 q 188 1192 201 1192 q 168 1161 168 1192 l 168 1107 z "},"ĩ":{"ha":532,"x_min":-7,"x_max":535,"o":"m 535 997 q 510 903 535 939 q 413 856 476 856 l 410 856 q 338 868 372 856 q 250 906 303 881 l 206 928 q 181 935 189 935 q 160 904 160 935 l 160 849 l -7 849 l -7 968 q 18 1063 -7 1024 q 114 1110 49 1110 l 118 1110 q 188 1099 156 1110 q 278 1058 221 1088 l 324 1038 q 347 1031 340 1031 q 368 1060 368 1031 l 368 1117 l 535 1117 l 535 997 m 424 774 l 424 0 l 108 0 l 108 774 l 424 774 z "},"Ī":{"ha":576,"x_min":10,"x_max":568,"o":"m 454 1033 l 454 0 l 122 0 l 122 1033 l 454 1033 m 10 1131 l 10 1306 l 568 1306 l 568 1131 l 10 1131 z "},"ī":{"ha":532,"x_min":15,"x_max":517,"o":"m 15 868 l 15 1043 l 517 1043 l 517 868 l 15 868 m 424 774 l 424 0 l 108 0 l 108 774 l 424 774 z "},"Ĭ":{"ha":576,"x_min":-17,"x_max":590,"o":"m 454 1033 l 454 0 l 122 0 l 122 1033 l 454 1033 m 269 1106 q 35 1194 107 1106 q -5 1267 7 1228 q -17 1343 -17 1307 l -17 1346 l 204 1346 q 222 1299 207 1317 q 289 1269 242 1269 l 290 1269 q 354 1299 335 1269 q 371 1346 368 1317 l 590 1346 l 590 1343 q 576 1268 590 1308 q 532 1194 563 1228 q 306 1106 456 1106 l 269 1106 z "},"ĭ":{"ha":532,"x_min":-22,"x_max":554,"o":"m 254 847 q 29 938 100 847 q -10 1010 1 971 q -22 1085 -22 1050 l -22 1088 l 194 1088 q 207 1042 194 1063 q 268 1011 225 1011 q 328 1042 307 1011 q 340 1088 340 1063 l 554 1088 l 554 1085 q 541 1011 554 1051 q 500 938 528 971 q 279 847 428 847 l 254 847 m 424 774 l 424 0 l 108 0 l 108 774 l 424 774 z "},"Į":{"ha":576,"x_min":61,"x_max":464,"o":"m 454 1033 l 454 0 l 122 0 l 122 1033 l 454 1033 m 240 -265 q 61 -162 61 -265 l 61 -160 q 126 -67 61 -103 q 321 0 192 -31 l 454 0 q 381 -47 425 -17 q 354 -90 354 -68 q 407 -124 354 -124 l 464 -124 l 464 -265 l 240 -265 z "},"į":{"ha":532,"x_min":32,"x_max":435,"o":"m 425 1054 l 425 851 l 107 851 l 107 1054 l 425 1054 m 424 774 l 424 0 l 108 0 l 108 774 l 424 774 m 211 -265 q 32 -162 32 -265 l 32 -160 q 97 -67 32 -103 q 292 0 163 -31 l 425 0 q 351 -47 396 -17 q 325 -90 325 -68 q 378 -124 325 -124 l 435 -124 l 435 -265 l 211 -265 z "},"İ":{"ha":576,"x_min":122,"x_max":454,"o":"m 454 1033 l 454 0 l 122 0 l 122 1033 l 454 1033 m 450 1315 l 450 1113 l 131 1113 l 131 1315 l 450 1315 z "},"ı":{"ha":532,"x_min":108,"x_max":424,"o":"m 424 774 l 424 0 l 108 0 l 108 774 l 424 774 z "},"Ķ":{"ha":1328,"x_min":122,"x_max":1339,"o":"m 613 -397 q 656 -281 647 -340 l 508 -281 l 508 -79 l 847 -79 l 847 -235 q 831 -321 847 -276 q 792 -397 814 -365 l 613 -397 m 453 0 l 122 0 l 122 1033 l 453 1033 l 453 621 l 907 1033 l 1310 1033 l 786 564 l 1339 0 l 914 0 l 453 474 l 453 0 z "},"ķ":{"ha":1057,"x_min":108,"x_max":1061,"o":"m 493 -397 q 536 -281 528 -340 l 389 -281 l 389 -79 l 728 -79 l 728 -235 q 711 -321 728 -276 q 672 -397 694 -365 l 493 -397 m 424 0 l 108 0 l 108 1051 l 424 1051 l 424 474 l 674 774 l 1026 774 l 722 426 l 1061 0 l 697 0 l 424 347 l 424 0 z "},"Ĺ":{"ha":1147,"x_min":122,"x_max":1079,"o":"m 447 1113 l 128 1113 l 258 1325 l 610 1325 l 447 1113 m 122 1033 l 454 1033 l 454 269 l 1079 269 l 1079 0 l 122 0 l 122 1033 z "},"ĺ":{"ha":532,"x_min":108,"x_max":590,"o":"m 114 1131 l 243 1344 l 590 1344 l 422 1131 l 114 1131 m 424 1051 l 424 0 l 108 0 l 108 1051 l 424 1051 z "},"Ļ":{"ha":1147,"x_min":122,"x_max":1079,"o":"m 535 -397 q 578 -281 569 -340 l 431 -281 l 431 -79 l 769 -79 l 769 -235 q 753 -321 769 -276 q 714 -397 736 -365 l 535 -397 m 122 1033 l 454 1033 l 454 269 l 1079 269 l 1079 0 l 122 0 l 122 1033 z "},"ļ":{"ha":532,"x_min":100,"x_max":439,"o":"m 204 -397 q 247 -281 239 -340 l 100 -281 l 100 -79 l 439 -79 l 439 -235 q 422 -321 439 -276 q 383 -397 406 -365 l 204 -397 m 424 1051 l 424 0 l 108 0 l 108 1051 l 424 1051 z "},"Ń":{"ha":1486,"x_min":122,"x_max":1364,"o":"m 901 1113 l 582 1113 l 713 1325 l 1064 1325 l 901 1113 m 1043 0 l 446 631 l 446 0 l 122 0 l 122 1033 l 461 1033 l 1042 414 l 1042 1033 l 1364 1033 l 1364 0 l 1043 0 z "},"ń":{"ha":1192,"x_min":108,"x_max":1086,"o":"m 435 854 l 564 1068 l 911 1068 l 743 854 l 435 854 m 108 774 l 421 774 l 421 651 q 528 739 464 704 q 743 793 628 793 l 757 793 q 901 768 839 793 q 1007 700 964 743 q 1066 608 1046 660 q 1086 500 1086 556 l 1086 0 l 771 0 l 771 394 q 732 507 771 467 q 601 554 685 554 q 468 503 515 554 q 424 383 424 454 l 424 0 l 108 0 l 108 774 z "},"Ņ":{"ha":1486,"x_min":122,"x_max":1364,"o":"m 678 -397 q 721 -281 713 -340 l 574 -281 l 574 -79 l 913 -79 l 913 -235 q 896 -321 913 -276 q 857 -397 879 -365 l 678 -397 m 1043 0 l 446 631 l 446 0 l 122 0 l 122 1033 l 461 1033 l 1042 414 l 1042 1033 l 1364 1033 l 1364 0 l 1043 0 z "},"ņ":{"ha":1192,"x_min":108,"x_max":1086,"o":"m 533 -397 q 576 -281 568 -340 l 429 -281 l 429 -79 l 768 -79 l 768 -235 q 751 -321 768 -276 q 713 -397 735 -365 l 533 -397 m 108 774 l 421 774 l 421 651 q 528 739 464 704 q 743 793 628 793 l 757 793 q 901 768 839 793 q 1007 700 964 743 q 1066 608 1046 660 q 1086 500 1086 556 l 1086 0 l 771 0 l 771 394 q 732 507 771 467 q 601 554 685 554 q 468 503 515 554 q 424 383 424 454 l 424 0 l 108 0 l 108 774 z "},"Ň":{"ha":1486,"x_min":122,"x_max":1364,"o":"m 563 1113 l 364 1325 l 664 1325 l 749 1235 l 835 1325 l 1129 1325 l 932 1113 l 563 1113 m 1043 0 l 446 631 l 446 0 l 122 0 l 122 1033 l 461 1033 l 1042 414 l 1042 1033 l 1364 1033 l 1364 0 l 1043 0 z "},"ň":{"ha":1192,"x_min":108,"x_max":1086,"o":"m 410 854 l 217 1068 l 517 1068 l 597 978 l 678 1068 l 972 1068 l 782 854 l 410 854 m 108 774 l 421 774 l 421 651 q 528 739 464 704 q 743 793 628 793 l 757 793 q 901 768 839 793 q 1007 700 964 743 q 1066 608 1046 660 q 1086 500 1086 556 l 1086 0 l 771 0 l 771 394 q 732 507 771 467 q 601 554 685 554 q 468 503 515 554 q 424 383 424 454 l 424 0 l 108 0 l 108 774 z "},"Ō":{"ha":1501,"x_min":76,"x_max":1425,"o":"m 471 1131 l 471 1306 l 1029 1306 l 1029 1131 l 471 1131 m 782 1050 q 1179 967 1024 1050 q 1374 771 1308 896 q 1425 540 1425 668 l 1425 499 q 1395 319 1425 408 q 1299 160 1365 231 q 782 -17 1132 -17 l 719 -17 q 324 69 478 -17 q 129 269 190 143 q 76 499 76 374 l 76 540 q 129 771 76 669 q 324 967 192 896 q 719 1050 476 1050 l 782 1050 m 1079 529 q 1019 703 1079 638 q 751 792 938 792 q 483 703 568 792 q 422 529 422 638 l 422 511 q 486 336 422 404 q 751 244 571 244 q 1019 336 938 244 q 1079 511 1079 403 l 1079 529 z "},"ō":{"ha":1190,"x_min":67,"x_max":1124,"o":"m 321 868 l 321 1043 l 869 1043 l 869 868 l 321 868 m 574 -21 q 244 51 367 -21 q 99 210 144 108 q 67 374 67 281 l 67 393 q 99 558 67 485 q 243 721 144 661 q 572 794 365 794 l 619 794 q 956 721 832 794 q 1096 558 1054 663 q 1124 394 1124 483 l 1124 372 q 1096 210 1124 283 q 954 51 1056 110 q 618 -21 832 -21 l 574 -21 m 601 197 q 757 265 706 197 q 796 390 796 315 q 757 515 796 465 q 601 579 707 579 l 589 579 q 432 515 479 579 q 394 390 394 467 q 432 264 394 314 q 589 197 479 197 l 601 197 z "},"Ŏ":{"ha":1501,"x_min":76,"x_max":1425,"o":"m 731 1106 q 496 1194 568 1106 q 456 1267 468 1228 q 444 1343 444 1307 l 444 1346 l 665 1346 q 683 1299 668 1317 q 750 1269 703 1269 l 751 1269 q 815 1299 796 1269 q 832 1346 829 1317 l 1051 1346 l 1051 1343 q 1038 1268 1051 1308 q 993 1194 1024 1228 q 767 1106 917 1106 l 731 1106 m 782 1050 q 1179 967 1024 1050 q 1374 771 1308 896 q 1425 540 1425 668 l 1425 499 q 1395 319 1425 408 q 1299 160 1365 231 q 782 -17 1132 -17 l 719 -17 q 324 69 478 -17 q 129 269 190 143 q 76 499 76 374 l 76 540 q 129 771 76 669 q 324 967 192 896 q 719 1050 476 1050 l 782 1050 m 1079 529 q 1019 703 1079 638 q 751 792 938 792 q 483 703 568 792 q 422 529 422 638 l 422 511 q 486 336 422 404 q 751 244 571 244 q 1019 336 938 244 q 1079 511 1079 403 l 1079 529 z "},"ŏ":{"ha":1190,"x_min":67,"x_max":1124,"o":"m 574 -21 q 244 51 367 -21 q 99 210 144 108 q 67 374 67 281 l 67 393 q 99 558 67 485 q 243 721 144 661 q 572 794 365 794 l 619 794 q 956 721 832 794 q 1096 558 1054 663 q 1124 394 1124 483 l 1124 372 q 1096 210 1124 283 q 954 51 1056 110 q 618 -21 832 -21 l 574 -21 m 601 197 q 757 265 706 197 q 796 390 796 315 q 757 515 796 465 q 601 579 707 579 l 589 579 q 432 515 479 579 q 394 390 394 467 q 432 264 394 314 q 589 197 479 197 l 601 197 m 578 847 q 346 936 418 847 q 306 1010 318 971 q 294 1086 294 1050 l 294 1089 l 517 1089 q 531 1042 517 1063 q 596 1011 551 1011 l 597 1011 q 660 1042 639 1011 q 674 1089 674 1063 l 894 1089 l 894 1086 q 881 1010 894 1050 q 839 936 868 971 q 613 847 763 847 l 578 847 z "},"Ő":{"ha":1501,"x_min":76,"x_max":1425,"o":"m 432 1113 l 528 1325 l 815 1325 l 715 1113 l 432 1113 m 799 1113 l 903 1325 l 1193 1325 l 1082 1113 l 799 1113 m 782 1050 q 1179 967 1024 1050 q 1374 771 1308 896 q 1425 540 1425 668 l 1425 499 q 1395 319 1425 408 q 1299 160 1365 231 q 782 -17 1132 -17 l 719 -17 q 324 69 478 -17 q 129 269 190 143 q 76 499 76 374 l 76 540 q 129 771 76 669 q 324 967 192 896 q 719 1050 476 1050 l 782 1050 m 1079 529 q 1019 703 1079 638 q 751 792 938 792 q 483 703 568 792 q 422 529 422 638 l 422 511 q 486 336 422 404 q 751 244 571 244 q 1019 336 938 244 q 1079 511 1079 403 l 1079 529 z "},"ő":{"ha":1190,"x_min":67,"x_max":1124,"o":"m 271 854 l 369 1068 l 658 1068 l 556 854 l 271 854 m 636 854 l 740 1068 l 1031 1068 l 918 854 l 636 854 m 574 -21 q 244 51 367 -21 q 99 210 144 108 q 67 374 67 281 l 67 393 q 99 558 67 485 q 243 721 144 661 q 572 794 365 794 l 619 794 q 956 721 832 794 q 1096 558 1054 663 q 1124 394 1124 483 l 1124 372 q 1096 210 1124 283 q 954 51 1056 110 q 618 -21 832 -21 l 574 -21 m 601 197 q 757 265 706 197 q 796 390 796 315 q 757 515 796 465 q 601 579 707 579 l 589 579 q 432 515 479 579 q 394 390 394 467 q 432 264 394 314 q 589 197 479 197 l 601 197 z "},"Ŕ":{"ha":1422,"x_min":122,"x_max":1349,"o":"m 853 1113 l 533 1113 l 664 1325 l 1015 1325 l 853 1113 m 1099 497 q 1267 418 1210 476 q 1332 240 1332 350 l 1332 106 q 1338 38 1332 54 q 1349 7 1342 18 l 1349 0 l 1006 0 q 1000 21 1001 14 q 997 68 997 40 l 997 154 q 988 240 997 206 q 956 296 978 275 q 803 336 911 336 l 454 336 l 454 0 l 122 0 l 122 1033 l 889 1033 q 1251 940 1146 1033 q 1324 754 1324 875 l 1324 742 q 1257 578 1324 644 q 1099 497 1196 517 m 454 590 l 844 590 q 951 619 918 590 q 978 689 978 642 l 978 692 q 951 758 978 736 q 844 786 917 786 l 454 786 l 454 590 z "},"ŕ":{"ha":1021,"x_min":108,"x_max":963,"o":"m 379 854 l 508 1068 l 856 1068 l 688 854 l 379 854 m 108 0 l 108 774 l 421 774 l 421 647 q 499 733 453 700 q 683 790 575 790 l 693 790 q 903 701 833 790 q 963 485 963 625 q 960 385 963 449 l 642 385 l 642 408 q 619 518 642 482 q 539 554 596 554 q 453 515 482 554 q 424 404 424 476 l 424 0 l 108 0 z "},"Ŗ":{"ha":1422,"x_min":122,"x_max":1349,"o":"m 654 -397 q 697 -281 689 -340 l 550 -281 l 550 -79 l 889 -79 l 889 -235 q 872 -321 889 -276 q 833 -397 856 -365 l 654 -397 m 1099 497 q 1267 418 1210 476 q 1332 240 1332 350 l 1332 106 q 1338 38 1332 54 q 1349 7 1342 18 l 1349 0 l 1006 0 q 1000 21 1001 14 q 997 68 997 40 l 997 154 q 988 240 997 206 q 956 296 978 275 q 803 336 911 336 l 454 336 l 454 0 l 122 0 l 122 1033 l 889 1033 q 1251 940 1146 1033 q 1324 754 1324 875 l 1324 742 q 1257 578 1324 644 q 1099 497 1196 517 m 454 590 l 844 590 q 951 619 918 590 q 978 689 978 642 l 978 692 q 951 758 978 736 q 844 786 917 786 l 454 786 l 454 590 z "},"ŗ":{"ha":1021,"x_min":99,"x_max":963,"o":"m 203 -397 q 246 -281 238 -340 l 99 -281 l 99 -79 l 438 -79 l 438 -235 q 421 -321 438 -276 q 382 -397 404 -365 l 203 -397 m 108 0 l 108 774 l 421 774 l 421 647 q 499 733 453 700 q 683 790 575 790 l 693 790 q 903 701 833 790 q 963 485 963 625 q 960 385 963 449 l 642 385 l 642 408 q 619 518 642 482 q 539 554 596 554 q 453 515 482 554 q 424 404 424 476 l 424 0 l 108 0 z "},"Ř":{"ha":1422,"x_min":122,"x_max":1349,"o":"m 508 1113 l 310 1325 l 610 1325 l 694 1235 l 781 1325 l 1075 1325 l 878 1113 l 508 1113 m 1099 497 q 1267 418 1210 476 q 1332 240 1332 350 l 1332 106 q 1338 38 1332 54 q 1349 7 1342 18 l 1349 0 l 1006 0 q 1000 21 1001 14 q 997 68 997 40 l 997 154 q 988 240 997 206 q 956 296 978 275 q 803 336 911 336 l 454 336 l 454 0 l 122 0 l 122 1033 l 889 1033 q 1251 940 1146 1033 q 1324 754 1324 875 l 1324 742 q 1257 578 1324 644 q 1099 497 1196 517 m 454 590 l 844 590 q 951 619 918 590 q 978 689 978 642 l 978 692 q 951 758 978 736 q 844 786 917 786 l 454 786 l 454 590 z "},"ř":{"ha":1021,"x_min":108,"x_max":963,"o":"m 343 854 l 150 1068 l 450 1068 l 531 978 l 611 1068 l 906 1068 l 715 854 l 343 854 m 108 0 l 108 774 l 421 774 l 421 647 q 499 733 453 700 q 683 790 575 790 l 693 790 q 903 701 833 790 q 963 485 963 625 q 960 385 963 449 l 642 385 l 642 408 q 619 518 642 482 q 539 554 596 554 q 453 515 482 554 q 424 404 424 476 l 424 0 l 108 0 z "},"Ś":{"ha":1329,"x_min":78,"x_max":1250,"o":"m 651 -18 q 272 43 410 -18 q 111 182 160 93 q 78 331 78 243 l 78 343 l 436 343 q 475 260 439 292 q 664 208 532 208 l 672 208 q 863 243 807 208 q 892 275 885 257 q 900 317 900 293 q 892 355 900 339 q 863 383 883 371 q 697 413 815 411 l 556 417 q 188 515 300 425 q 90 725 90 592 l 90 738 q 196 957 90 882 q 631 1047 326 1047 l 683 1047 q 1138 944 1007 1047 q 1232 733 1232 869 l 1232 722 l 879 722 q 867 760 875 743 q 838 792 858 776 q 661 828 785 828 l 649 828 q 476 804 526 828 q 445 778 454 793 q 436 743 436 764 q 474 683 436 703 q 628 654 519 656 l 774 650 q 1157 558 1042 642 q 1228 467 1207 521 q 1250 343 1250 414 l 1250 326 q 1214 167 1250 232 q 1051 36 1165 82 q 689 -18 917 -18 l 651 -18 m 815 1113 l 496 1113 l 626 1325 l 978 1325 l 815 1113 z "},"ś":{"ha":1072,"x_min":63,"x_max":1003,"o":"m 372 854 l 501 1068 l 849 1068 l 681 854 l 372 854 m 507 -18 q 208 31 319 -18 q 86 138 124 68 q 63 238 63 181 l 63 243 l 400 243 q 426 197 404 215 q 539 169 461 169 l 542 169 q 650 189 614 169 q 676 233 676 203 q 653 278 676 264 q 539 299 628 293 l 424 307 q 146 386 233 317 q 72 546 72 444 l 72 554 q 92 649 72 607 q 157 721 111 690 q 504 790 263 790 l 539 790 q 911 711 803 790 q 989 549 989 654 l 989 546 l 661 546 q 656 563 661 547 q 635 590 651 578 q 526 614 604 614 l 521 614 q 417 599 444 614 q 390 556 390 582 q 418 511 390 526 q 521 492 449 493 l 633 488 q 928 417 842 479 q 985 348 968 388 q 1003 256 1003 308 l 1003 243 q 986 143 1003 188 q 924 65 969 99 q 544 -18 815 -18 l 507 -18 z "},"Ŝ":{"ha":1329,"x_min":78,"x_max":1250,"o":"m 842 1325 l 1040 1110 l 742 1110 l 657 1200 l 571 1110 l 278 1110 l 475 1325 l 842 1325 m 651 -18 q 272 43 410 -18 q 111 182 160 93 q 78 331 78 243 l 78 343 l 436 343 q 475 260 439 292 q 664 208 532 208 l 672 208 q 863 243 807 208 q 892 275 885 257 q 900 317 900 293 q 892 355 900 339 q 863 383 883 371 q 697 413 815 411 l 556 417 q 188 515 300 425 q 90 725 90 592 l 90 738 q 196 957 90 882 q 631 1047 326 1047 l 683 1047 q 1138 944 1007 1047 q 1232 733 1232 869 l 1232 722 l 879 722 q 867 760 875 743 q 838 792 858 776 q 661 828 785 828 l 649 828 q 476 804 526 828 q 445 778 454 793 q 436 743 436 764 q 474 683 436 703 q 628 654 519 656 l 774 650 q 1157 558 1042 642 q 1228 467 1207 521 q 1250 343 1250 414 l 1250 326 q 1214 167 1250 232 q 1051 36 1165 82 q 689 -18 917 -18 l 651 -18 z "},"ŝ":{"ha":1072,"x_min":63,"x_max":1003,"o":"m 714 1068 l 907 853 l 607 853 l 526 944 l 446 853 l 151 853 l 342 1068 l 714 1068 m 507 -18 q 208 31 319 -18 q 86 138 124 68 q 63 238 63 181 l 63 243 l 400 243 q 426 197 404 215 q 539 169 461 169 l 542 169 q 650 189 614 169 q 676 233 676 203 q 653 278 676 264 q 539 299 628 293 l 424 307 q 146 386 233 317 q 72 546 72 444 l 72 554 q 92 649 72 607 q 157 721 111 690 q 504 790 263 790 l 539 790 q 911 711 803 790 q 989 549 989 654 l 989 546 l 661 546 q 656 563 661 547 q 635 590 651 578 q 526 614 604 614 l 521 614 q 417 599 444 614 q 390 556 390 582 q 418 511 390 526 q 521 492 449 493 l 633 488 q 928 417 842 479 q 985 348 968 388 q 1003 256 1003 308 l 1003 243 q 986 143 1003 188 q 924 65 969 99 q 544 -18 815 -18 l 507 -18 z "},"Ş":{"ha":1329,"x_min":78,"x_max":1250,"o":"m 921 -231 q 875 -340 921 -303 q 668 -389 815 -389 l 463 -389 l 463 -250 l 628 -250 q 669 -242 658 -250 q 679 -217 679 -233 q 668 -193 679 -201 q 628 -185 657 -185 l 506 -185 l 506 -11 q 225 68 331 6 q 104 199 142 117 q 78 331 78 253 l 78 343 l 436 343 q 475 260 439 292 q 664 208 532 208 l 672 208 q 863 243 807 208 q 892 275 885 257 q 900 317 900 293 q 892 355 900 339 q 863 383 883 371 q 697 413 815 411 l 556 417 q 188 515 300 425 q 90 725 90 592 l 90 738 q 196 957 90 882 q 631 1047 326 1047 l 683 1047 q 1138 944 1007 1047 q 1232 733 1232 869 l 1232 722 l 879 722 q 867 760 875 743 q 838 792 858 776 q 661 828 785 828 l 649 828 q 476 804 526 828 q 445 778 454 793 q 436 743 436 764 q 474 683 436 703 q 628 654 519 656 l 774 650 q 1157 558 1042 642 q 1228 467 1207 521 q 1250 343 1250 414 l 1250 326 q 1214 167 1250 232 q 1051 36 1165 82 q 689 -18 917 -18 l 679 -18 l 679 -72 l 685 -72 q 878 -115 824 -72 q 921 -225 921 -151 l 921 -231 z "},"ş":{"ha":1072,"x_min":63,"x_max":1003,"o":"m 782 -231 q 738 -340 782 -304 q 531 -389 678 -389 l 324 -389 l 324 -250 l 490 -250 q 531 -242 521 -250 q 542 -217 542 -233 q 531 -193 542 -201 q 490 -185 519 -185 l 368 -185 l 368 -10 q 111 101 188 11 q 63 238 63 158 l 63 243 l 400 243 q 426 197 404 215 q 539 169 461 169 l 542 169 q 650 189 614 169 q 676 233 676 203 q 653 278 676 264 q 539 299 628 293 l 424 307 q 146 386 233 317 q 72 546 72 444 l 72 554 q 92 649 72 607 q 157 721 111 690 q 504 790 263 790 l 539 790 q 911 711 803 790 q 989 549 989 654 l 989 546 l 661 546 q 656 563 661 547 q 635 590 651 578 q 526 614 604 614 l 521 614 q 417 599 444 614 q 390 556 390 582 q 418 511 390 526 q 521 492 449 493 l 633 488 q 928 417 842 479 q 985 348 968 388 q 1003 256 1003 308 l 1003 243 q 986 143 1003 188 q 924 65 969 99 q 544 -18 815 -18 l 542 -18 l 542 -72 l 547 -72 q 739 -115 685 -72 q 782 -225 782 -151 l 782 -231 z "},"Š":{"ha":1329,"x_min":78,"x_max":1250,"o":"m 472 1113 l 274 1325 l 574 1325 l 658 1235 l 744 1325 l 1039 1325 l 842 1113 l 472 1113 m 651 -18 q 272 43 410 -18 q 111 182 160 93 q 78 331 78 243 l 78 343 l 436 343 q 475 260 439 292 q 664 208 532 208 l 672 208 q 863 243 807 208 q 892 275 885 257 q 900 317 900 293 q 892 355 900 339 q 863 383 883 371 q 697 413 815 411 l 556 417 q 188 515 300 425 q 90 725 90 592 l 90 738 q 196 957 90 882 q 631 1047 326 1047 l 683 1047 q 1138 944 1007 1047 q 1232 733 1232 869 l 1232 722 l 879 722 q 867 760 875 743 q 838 792 858 776 q 661 828 785 828 l 649 828 q 476 804 526 828 q 445 778 454 793 q 436 743 436 764 q 474 683 436 703 q 628 654 519 656 l 774 650 q 1157 558 1042 642 q 1228 467 1207 521 q 1250 343 1250 414 l 1250 326 q 1214 167 1250 232 q 1051 36 1165 82 q 689 -18 917 -18 l 651 -18 z "},"š":{"ha":1072,"x_min":63,"x_max":1003,"o":"m 339 854 l 146 1068 l 446 1068 l 526 978 l 607 1068 l 901 1068 l 711 854 l 339 854 m 507 -18 q 208 31 319 -18 q 86 138 124 68 q 63 238 63 181 l 63 243 l 400 243 q 426 197 404 215 q 539 169 461 169 l 542 169 q 650 189 614 169 q 676 233 676 203 q 653 278 676 264 q 539 299 628 293 l 424 307 q 146 386 233 317 q 72 546 72 444 l 72 554 q 92 649 72 607 q 157 721 111 690 q 504 790 263 790 l 539 790 q 911 711 803 790 q 989 549 989 654 l 989 546 l 661 546 q 656 563 661 547 q 635 590 651 578 q 526 614 604 614 l 521 614 q 417 599 444 614 q 390 556 390 582 q 418 511 390 526 q 521 492 449 493 l 633 488 q 928 417 842 479 q 985 348 968 388 q 1003 256 1003 308 l 1003 243 q 986 143 1003 188 q 924 65 969 99 q 544 -18 815 -18 l 507 -18 z "},"Ţ":{"ha":1272,"x_min":64,"x_max":1208,"o":"m 571 -397 q 614 -281 606 -340 l 467 -281 l 467 -79 l 806 -79 l 806 -235 q 789 -321 806 -276 q 750 -397 772 -365 l 571 -397 m 471 0 l 471 772 l 64 772 l 64 1033 l 1208 1033 l 1208 772 l 801 772 l 801 0 l 471 0 z "},"ţ":{"ha":767,"x_min":51,"x_max":694,"o":"m 413 -397 q 456 -281 447 -340 l 308 -281 l 308 -79 l 647 -79 l 647 -235 q 631 -321 647 -276 q 592 -397 614 -365 l 413 -397 m 694 0 l 421 0 q 269 53 325 0 q 214 207 214 106 l 214 560 l 51 560 l 51 774 l 214 774 l 214 1007 l 526 1007 l 526 774 l 694 774 l 694 560 l 526 560 l 526 311 q 542 247 526 265 q 604 229 558 229 l 694 229 l 694 0 z "},"Ũ":{"ha":1465,"x_min":117,"x_max":1350,"o":"m 715 -15 q 315 79 463 -15 q 150 294 200 153 q 117 525 117 389 l 117 1033 l 447 1033 l 447 529 q 497 350 447 417 q 732 258 563 258 l 739 258 q 972 350 907 258 q 1019 529 1019 415 l 1019 1033 l 1350 1033 l 1350 525 q 1314 294 1350 394 q 1146 79 1264 156 q 756 -15 999 -15 l 715 -15 m 614 1107 l 440 1107 l 440 1224 q 468 1319 440 1279 q 569 1365 501 1365 l 572 1365 q 647 1354 610 1365 q 756 1314 685 1343 q 806 1294 767 1310 q 835 1288 824 1288 q 854 1318 854 1288 l 854 1372 l 1028 1372 l 1028 1256 q 1001 1161 1028 1197 q 899 1114 968 1114 l 896 1114 q 821 1125 858 1114 q 713 1165 783 1136 l 663 1186 q 633 1192 647 1192 q 614 1161 614 1192 l 614 1107 z "},"ũ":{"ha":1183,"x_min":106,"x_max":1075,"o":"m 1075 0 l 763 0 l 763 122 q 658 35 724 71 q 444 -19 560 -19 l 431 -19 q 288 6 350 -19 q 183 74 225 31 q 125 165 144 114 q 106 272 106 217 l 106 774 l 421 774 l 421 379 q 458 268 421 307 q 586 219 503 219 q 717 271 668 219 q 760 390 760 318 l 760 774 l 1075 774 l 1075 0 m 874 997 q 847 903 874 940 q 746 856 814 856 l 743 856 q 671 866 704 856 q 574 906 638 876 l 528 928 q 501 935 511 935 q 481 904 481 935 l 481 849 l 308 849 l 308 968 q 335 1063 308 1025 q 435 1110 368 1110 l 439 1110 q 515 1099 481 1110 q 581 1071 549 1086 l 607 1058 l 654 1038 q 679 1031 671 1031 q 700 1060 700 1031 l 700 1117 l 874 1117 l 874 997 z "},"Ū":{"ha":1465,"x_min":117,"x_max":1350,"o":"m 715 -15 q 315 79 463 -15 q 150 294 200 153 q 117 525 117 389 l 117 1033 l 447 1033 l 447 529 q 497 350 447 417 q 732 258 563 258 l 739 258 q 972 350 907 258 q 1019 529 1019 415 l 1019 1033 l 1350 1033 l 1350 525 q 1314 294 1350 394 q 1146 79 1264 156 q 756 -15 999 -15 l 715 -15 m 454 1131 l 454 1306 l 1013 1306 l 1013 1131 l 454 1131 z "},"ū":{"ha":1183,"x_min":106,"x_max":1075,"o":"m 1075 0 l 763 0 l 763 122 q 658 35 724 71 q 444 -19 560 -19 l 431 -19 q 288 6 350 -19 q 183 74 225 31 q 125 165 144 114 q 106 272 106 217 l 106 774 l 421 774 l 421 379 q 458 268 421 307 q 586 219 503 219 q 717 271 668 219 q 760 390 760 318 l 760 774 l 1075 774 l 1075 0 m 315 868 l 315 1043 l 864 1043 l 864 868 l 315 868 z "},"Ŭ":{"ha":1465,"x_min":117,"x_max":1350,"o":"m 715 -15 q 315 79 463 -15 q 150 294 200 153 q 117 525 117 389 l 117 1033 l 447 1033 l 447 529 q 497 350 447 417 q 732 258 563 258 l 739 258 q 972 350 907 258 q 1019 529 1019 415 l 1019 1033 l 1350 1033 l 1350 525 q 1314 294 1350 394 q 1146 79 1264 156 q 756 -15 999 -15 l 715 -15 m 714 1106 q 479 1194 551 1106 q 440 1267 451 1228 q 428 1343 428 1307 l 428 1346 l 649 1346 q 667 1299 651 1317 q 733 1269 686 1269 l 735 1269 q 799 1299 779 1269 q 815 1346 813 1317 l 1035 1346 l 1035 1343 q 1021 1268 1035 1308 q 976 1194 1007 1228 q 750 1106 900 1106 l 714 1106 z "},"ŭ":{"ha":1183,"x_min":106,"x_max":1075,"o":"m 1075 0 l 763 0 l 763 122 q 658 35 724 71 q 444 -19 560 -19 l 431 -19 q 288 6 350 -19 q 183 74 225 31 q 125 165 144 114 q 106 272 106 217 l 106 774 l 421 774 l 421 379 q 458 268 421 307 q 586 219 503 219 q 717 271 668 219 q 760 390 760 318 l 760 774 l 1075 774 l 1075 0 m 572 847 q 340 936 413 847 q 301 1010 313 971 q 289 1086 289 1050 l 289 1089 l 511 1089 q 525 1042 511 1063 q 590 1011 546 1011 l 592 1011 q 654 1042 633 1011 q 668 1089 668 1063 l 889 1089 l 889 1086 q 876 1010 889 1050 q 833 936 863 971 q 607 847 757 847 l 572 847 z "},"Ů":{"ha":1465,"x_min":117,"x_max":1350,"o":"m 715 -15 q 315 79 463 -15 q 150 294 200 153 q 117 525 117 389 l 117 1033 l 447 1033 l 447 529 q 497 350 447 417 q 732 258 563 258 l 739 258 q 972 350 907 258 q 1019 529 1019 415 l 1019 1033 l 1350 1033 l 1350 525 q 1314 294 1350 394 q 1146 79 1264 156 q 756 -15 999 -15 l 715 -15 m 483 1257 q 536 1385 483 1338 q 732 1440 601 1440 q 931 1385 865 1440 q 982 1257 982 1338 q 931 1129 982 1176 q 732 1071 865 1071 q 535 1129 597 1071 q 483 1257 483 1176 m 825 1257 q 802 1310 825 1289 q 732 1331 779 1331 q 663 1310 686 1331 q 640 1257 640 1289 q 663 1201 640 1224 q 732 1179 686 1179 q 802 1201 779 1179 q 825 1257 825 1224 z "},"ů":{"ha":1183,"x_min":106,"x_max":1075,"o":"m 343 1029 q 394 1157 343 1110 q 589 1213 457 1213 q 786 1157 721 1213 q 838 1029 838 1110 q 786 901 838 947 q 589 843 724 843 q 394 901 457 843 q 343 1029 343 947 m 500 1029 q 522 974 500 996 q 589 953 544 953 q 657 974 635 953 q 679 1029 679 996 q 657 1083 679 1063 q 589 1103 635 1103 q 522 1082 544 1103 q 500 1029 500 1061 m 1075 0 l 763 0 l 763 122 q 658 35 724 71 q 444 -19 560 -19 l 431 -19 q 288 6 350 -19 q 183 74 225 31 q 125 165 144 114 q 106 272 106 217 l 106 774 l 421 774 l 421 379 q 458 268 421 307 q 586 219 503 219 q 717 271 668 219 q 760 390 760 318 l 760 774 l 1075 774 l 1075 0 z "},"Ű":{"ha":1465,"x_min":117,"x_max":1350,"o":"m 407 1113 l 503 1325 l 790 1325 l 690 1113 l 407 1113 m 774 1113 l 878 1325 l 1168 1325 l 1057 1113 l 774 1113 m 715 -15 q 315 79 463 -15 q 150 294 200 153 q 117 525 117 389 l 117 1033 l 447 1033 l 447 529 q 497 350 447 417 q 732 258 563 258 l 739 258 q 972 350 907 258 q 1019 529 1019 415 l 1019 1033 l 1350 1033 l 1350 525 q 1314 294 1350 394 q 1146 79 1264 156 q 756 -15 999 -15 l 715 -15 z "},"ű":{"ha":1183,"x_min":106,"x_max":1075,"o":"m 1075 0 l 763 0 l 763 122 q 658 35 724 71 q 444 -19 560 -19 l 431 -19 q 288 6 350 -19 q 183 74 225 31 q 125 165 144 114 q 106 272 106 217 l 106 774 l 421 774 l 421 379 q 458 268 421 307 q 586 219 503 219 q 717 271 668 219 q 760 390 760 318 l 760 774 l 1075 774 l 1075 0 m 267 854 l 365 1068 l 654 1068 l 551 854 l 267 854 m 632 854 l 736 1068 l 1026 1068 l 914 854 l 632 854 z "},"Ų":{"ha":1465,"x_min":117,"x_max":1350,"o":"m 826 -267 q 647 -164 647 -267 l 647 -160 q 697 -76 647 -112 q 856 -11 749 -42 q 756 -15 810 -15 l 715 -15 q 315 79 463 -15 q 150 294 200 153 q 117 525 117 389 l 117 1033 l 447 1033 l 447 529 q 497 350 447 417 q 732 258 563 258 l 739 258 q 972 350 907 258 q 1019 529 1019 415 l 1019 1033 l 1350 1033 l 1350 525 q 1293 247 1350 363 q 1088 32 1232 119 q 974 -40 1053 11 q 939 -89 939 -65 q 993 -125 939 -125 l 1050 -125 l 1050 -267 l 826 -267 z "},"ų":{"ha":1183,"x_min":106,"x_max":1085,"o":"m 1085 -124 l 1085 -265 l 861 -265 q 682 -162 682 -265 l 682 -160 q 747 -67 682 -103 q 942 0 813 -31 l 763 0 l 763 122 q 658 35 724 71 q 444 -19 560 -19 l 431 -19 q 288 6 350 -19 q 183 74 225 31 q 125 165 144 114 q 106 272 106 217 l 106 774 l 421 774 l 421 379 q 458 268 421 307 q 586 219 503 219 q 717 271 668 219 q 760 390 760 318 l 760 774 l 1075 774 l 1075 0 q 1001 -47 1046 -17 q 975 -90 975 -68 q 1028 -124 975 -124 l 1085 -124 z "},"Ŵ":{"ha":1922,"x_min":14,"x_max":1908,"o":"m 1161 1325 l 1360 1110 l 1061 1110 l 976 1200 l 890 1110 l 597 1110 l 794 1325 l 1161 1325 m 754 0 l 368 0 l 14 1033 l 369 1033 l 583 322 l 793 1033 l 1160 1033 l 1368 321 l 1582 1033 l 1908 1033 l 1564 0 l 1172 0 l 963 683 l 754 0 z "},"ŵ":{"ha":1647,"x_min":21,"x_max":1625,"o":"m 1022 1068 l 1215 853 l 915 853 l 835 944 l 754 853 l 460 853 l 650 1068 l 1022 1068 m 682 0 l 310 0 l 21 774 l 356 774 l 514 264 l 667 774 l 1011 774 l 1171 265 l 1321 774 l 1625 774 l 1361 0 l 983 0 l 828 467 l 682 0 z "},"Ŷ":{"ha":1342,"x_min":-12,"x_max":1354,"o":"m 514 0 l 514 374 l -12 1033 l 394 1033 l 692 646 l 990 1033 l 1354 1033 l 844 372 l 844 0 l 514 0 m 876 1325 l 1075 1110 l 776 1110 l 692 1200 l 606 1110 l 313 1110 l 510 1325 l 876 1325 z "},"ŷ":{"ha":1082,"x_min":14,"x_max":1067,"o":"m 161 -54 l 336 -54 q 372 -26 372 -54 q 368 0 372 -15 q 349 42 357 28 l 14 774 l 361 774 l 560 244 l 747 774 l 1067 774 l 719 -71 q 615 -217 678 -171 q 451 -264 553 -264 l 161 -264 l 161 -54 m 742 1068 l 935 853 l 635 853 l 554 944 l 474 853 l 179 853 l 369 1068 l 742 1068 z "},"Ÿ":{"ha":1342,"x_min":-12,"x_max":1354,"o":"m 514 0 l 514 374 l -12 1033 l 394 1033 l 692 646 l 990 1033 l 1354 1033 l 844 372 l 844 0 l 514 0 m 651 1315 l 651 1113 l 346 1113 l 346 1315 l 651 1315 m 1038 1315 l 1038 1113 l 732 1113 l 732 1315 l 1038 1315 z "},"Ź":{"ha":1299,"x_min":99,"x_max":1201,"o":"m 808 1113 l 489 1113 l 619 1325 l 971 1325 l 808 1113 m 1201 0 l 99 0 l 99 218 l 715 774 l 103 774 l 103 1033 l 1196 1033 l 1196 817 l 553 263 l 1201 263 l 1201 0 z "},"ź":{"ha":1054,"x_min":82,"x_max":975,"o":"m 368 854 l 497 1068 l 844 1068 l 676 854 l 368 854 m 975 0 l 82 0 l 82 204 l 550 554 l 86 554 l 86 774 l 958 774 l 958 572 l 475 226 l 975 226 l 975 0 z "},"Ż":{"ha":1299,"x_min":99,"x_max":1201,"o":"m 1201 0 l 99 0 l 99 218 l 715 774 l 103 774 l 103 1033 l 1196 1033 l 1196 817 l 553 263 l 1201 263 l 1201 0 m 810 1315 l 810 1113 l 490 1113 l 490 1315 l 810 1315 z "},"ż":{"ha":1054,"x_min":82,"x_max":975,"o":"m 975 0 l 82 0 l 82 204 l 550 554 l 86 554 l 86 774 l 958 774 l 958 572 l 475 226 l 975 226 l 975 0 m 682 1054 l 682 851 l 363 851 l 363 1054 l 682 1054 z "},"Ž":{"ha":1299,"x_min":99,"x_max":1201,"o":"m 464 1113 l 265 1325 l 565 1325 l 650 1235 l 736 1325 l 1031 1325 l 833 1113 l 464 1113 m 1201 0 l 99 0 l 99 218 l 715 774 l 103 774 l 103 1033 l 1196 1033 l 1196 817 l 553 263 l 1201 263 l 1201 0 z "},"ž":{"ha":1054,"x_min":82,"x_max":975,"o":"m 335 854 l 142 1068 l 442 1068 l 522 978 l 603 1068 l 897 1068 l 707 854 l 335 854 m 975 0 l 82 0 l 82 204 l 550 554 l 86 554 l 86 774 l 958 774 l 958 572 l 475 226 l 975 226 l 975 0 z "},"Ǻ":{"ha":1400,"x_min":4,"x_max":1396,"o":"m 1042 0 l 961 179 l 415 179 l 336 0 l 4 0 l 474 1033 l 911 1033 l 1396 0 l 1042 0 m 860 407 l 686 793 l 517 407 l 860 407 m 850 1514 l 531 1514 l 661 1726 l 1013 1726 l 850 1514 m 442 1286 q 494 1414 442 1367 q 690 1469 560 1469 q 889 1414 824 1469 q 940 1286 940 1367 q 889 1158 940 1206 q 690 1100 824 1100 q 493 1158 556 1100 q 442 1286 442 1206 m 783 1286 q 760 1339 783 1318 q 690 1360 738 1360 q 622 1339 644 1360 q 599 1286 599 1318 q 622 1231 599 1253 q 690 1208 644 1208 q 760 1231 738 1208 q 783 1286 783 1253 z "},"ǻ":{"ha":1126,"x_min":67,"x_max":1088,"o":"m 701 101 q 611 31 660 57 q 403 -15 525 -15 l 379 -15 q 143 57 225 -15 q 86 135 106 90 q 67 232 67 181 l 67 238 q 143 400 67 347 q 421 474 222 457 l 636 490 q 681 504 668 493 q 693 536 693 515 l 693 538 q 669 585 693 571 q 549 606 635 606 l 544 606 q 425 576 457 606 q 403 528 403 556 l 86 528 l 86 529 q 111 638 86 590 q 232 744 149 707 q 522 792 343 792 l 567 792 q 936 701 833 792 q 988 624 975 667 q 1001 528 1001 581 l 1001 281 q 1011 238 1001 250 q 1051 226 1021 226 l 1088 226 l 1088 0 l 832 0 q 743 35 781 0 q 701 101 714 60 m 499 167 q 650 218 596 167 q 683 265 672 239 q 693 314 693 290 l 693 363 q 538 332 644 350 q 414 299 444 317 q 381 244 381 281 l 381 242 q 410 187 381 207 q 499 167 439 167 m 390 1256 l 519 1469 l 867 1469 l 699 1256 l 390 1256 m 299 1029 q 350 1157 299 1110 q 544 1213 413 1213 q 742 1157 676 1213 q 793 1029 793 1110 q 742 901 793 947 q 544 843 679 843 q 350 901 413 843 q 299 1029 299 947 m 456 1029 q 478 974 456 996 q 544 953 500 953 q 613 974 590 953 q 635 1029 635 996 q 613 1083 635 1063 q 544 1103 590 1103 q 478 1082 500 1103 q 456 1029 456 1061 z "},"Ș":{"ha":1329,"x_min":78,"x_max":1250,"o":"m 603 -397 q 646 -281 638 -340 l 499 -281 l 499 -79 l 838 -79 l 838 -235 q 821 -321 838 -276 q 782 -397 804 -365 l 603 -397 m 651 -18 q 272 43 410 -18 q 111 182 160 93 q 78 331 78 243 l 78 343 l 436 343 q 475 260 439 292 q 664 208 532 208 l 672 208 q 863 243 807 208 q 892 275 885 257 q 900 317 900 293 q 892 355 900 339 q 863 383 883 371 q 697 413 815 411 l 556 417 q 188 515 300 425 q 90 725 90 592 l 90 738 q 196 957 90 882 q 631 1047 326 1047 l 683 1047 q 1138 944 1007 1047 q 1232 733 1232 869 l 1232 722 l 879 722 q 867 760 875 743 q 838 792 858 776 q 661 828 785 828 l 649 828 q 476 804 526 828 q 445 778 454 793 q 436 743 436 764 q 474 683 436 703 q 628 654 519 656 l 774 650 q 1157 558 1042 642 q 1228 467 1207 521 q 1250 343 1250 414 l 1250 326 q 1214 167 1250 232 q 1051 36 1165 82 q 689 -18 917 -18 l 651 -18 z "},"ș":{"ha":1072,"x_min":63,"x_max":1003,"o":"m 468 -397 q 511 -281 503 -340 l 364 -281 l 364 -79 l 703 -79 l 703 -235 q 686 -321 703 -276 q 647 -397 669 -365 l 468 -397 m 507 -18 q 208 31 319 -18 q 86 138 124 68 q 63 238 63 181 l 63 243 l 400 243 q 426 197 404 215 q 539 169 461 169 l 542 169 q 650 189 614 169 q 676 233 676 203 q 653 278 676 264 q 539 299 628 293 l 424 307 q 146 386 233 317 q 72 546 72 444 l 72 554 q 92 649 72 607 q 157 721 111 690 q 504 790 263 790 l 539 790 q 911 711 803 790 q 989 549 989 654 l 989 546 l 661 546 q 656 563 661 547 q 635 590 651 578 q 526 614 604 614 l 521 614 q 417 599 444 614 q 390 556 390 582 q 418 511 390 526 q 521 492 449 493 l 633 488 q 928 417 842 479 q 985 348 968 388 q 1003 256 1003 308 l 1003 243 q 986 143 1003 188 q 924 65 969 99 q 544 -18 815 -18 l 507 -18 z "},"Ё":{"ha":1218,"x_min":122,"x_max":1121,"o":"m 122 1033 l 1113 1033 l 1113 796 l 451 796 l 451 646 l 1092 646 l 1092 400 l 451 400 l 451 240 l 1121 240 l 1121 0 l 122 0 l 122 1033 m 578 1315 l 578 1113 l 272 1113 l 272 1315 l 578 1315 m 964 1315 l 964 1113 l 658 1113 l 658 1315 l 964 1315 z "},"Ѓ":{"ha":1061,"x_min":122,"x_max":1029,"o":"m 122 0 l 122 1033 l 1029 1033 l 1029 788 l 454 788 l 454 0 l 122 0 m 726 1113 l 407 1113 l 538 1325 l 889 1325 l 726 1113 z "},"Ў":{"ha":1331,"x_min":-11,"x_max":1343,"o":"m 869 229 q 800 126 833 167 q 725 58 767 85 q 624 15 681 29 q 489 0 567 0 l 239 0 l 239 254 l 422 254 q 450 276 450 254 l 450 278 q 445 300 450 289 q 429 329 440 311 l -11 1033 l 365 1033 l 683 506 l 982 1033 l 1343 1033 l 869 229 m 661 1106 q 426 1194 499 1106 q 387 1267 399 1228 q 375 1343 375 1307 l 375 1346 l 596 1346 q 614 1299 599 1317 q 681 1269 633 1269 l 682 1269 q 746 1299 726 1269 q 763 1346 760 1317 l 982 1346 l 982 1343 q 968 1268 982 1308 q 924 1194 954 1228 q 697 1106 847 1106 l 661 1106 z "},"А":{"ha":1400,"x_min":4,"x_max":1396,"o":"m 1042 0 l 961 179 l 415 179 l 336 0 l 4 0 l 474 1033 l 911 1033 l 1396 0 l 1042 0 m 860 407 l 686 793 l 517 407 l 860 407 z "},"Б":{"ha":1375,"x_min":122,"x_max":1313,"o":"m 122 1033 l 1238 1033 l 1238 794 l 454 794 l 454 672 l 892 672 q 1221 579 1114 672 q 1313 346 1313 497 l 1313 329 q 1219 96 1313 181 q 892 0 1113 0 l 122 0 l 122 1033 m 835 239 q 933 264 900 239 q 967 333 967 289 l 967 342 q 933 409 967 385 q 835 433 900 433 l 454 433 l 454 239 l 835 239 z "},"В":{"ha":1429,"x_min":122,"x_max":1364,"o":"m 122 1033 l 932 1033 q 1232 958 1136 1033 q 1310 790 1310 896 l 1310 778 q 1242 628 1310 686 q 1179 590 1213 604 q 1114 571 1146 575 q 1282 501 1218 553 q 1364 315 1364 433 l 1364 301 q 1275 93 1364 168 q 935 0 1168 0 l 122 0 l 122 1033 m 454 804 l 454 638 l 857 638 q 965 719 965 638 l 965 722 q 941 783 965 761 q 857 804 917 804 l 454 804 m 454 424 l 454 240 l 883 240 q 982 271 951 240 q 1006 333 1006 293 l 1006 339 q 982 399 1006 379 q 883 424 953 424 l 454 424 z "},"Г":{"ha":1061,"x_min":122,"x_max":1029,"o":"m 122 0 l 122 1033 l 1029 1033 l 1029 788 l 454 788 l 454 0 l 122 0 z "},"Д":{"ha":1499,"x_min":25,"x_max":1464,"o":"m 139 246 q 217 508 193 356 q 244 1033 244 707 l 1297 1033 l 1297 246 l 1464 246 l 1464 -174 l 1156 -174 l 1156 0 l 333 0 l 333 -174 l 25 -174 l 25 246 l 139 246 m 967 246 l 967 788 l 553 788 q 525 444 553 593 q 464 246 503 326 l 967 246 z "},"Е":{"ha":1218,"x_min":122,"x_max":1121,"o":"m 122 1033 l 1113 1033 l 1113 796 l 451 796 l 451 646 l 1092 646 l 1092 400 l 451 400 l 451 240 l 1121 240 l 1121 0 l 122 0 l 122 1033 z "},"Ж":{"ha":1942,"x_min":-14,"x_max":1956,"o":"m 800 0 l 800 450 l 393 0 l -14 0 l 492 551 l -3 1033 l 400 1033 l 800 644 l 800 1033 l 1132 1033 l 1132 644 l 1531 1033 l 1926 1033 l 1444 563 l 1956 0 l 1539 0 l 1132 449 l 1132 0 l 800 0 z "},"З":{"ha":1386,"x_min":71,"x_max":1324,"o":"m 1324 297 q 1167 57 1324 136 q 726 -18 1017 -18 l 693 -18 q 256 65 417 -18 q 71 358 71 161 l 71 371 l 422 371 q 497 244 422 282 q 732 207 572 207 q 918 236 858 207 q 978 322 978 263 q 933 399 978 376 q 792 422 889 422 l 514 422 l 514 640 l 772 640 q 893 657 853 640 q 942 722 942 675 q 888 801 942 776 q 703 825 832 825 q 513 797 578 825 q 431 685 432 761 l 79 685 l 79 701 q 258 969 79 881 q 682 1046 413 1046 l 726 1046 q 1142 978 996 1046 q 1288 781 1288 910 l 1288 771 q 1229 622 1288 676 q 1090 550 1181 575 q 1249 476 1186 531 q 1324 311 1324 411 l 1324 297 z "},"И":{"ha":1465,"x_min":122,"x_max":1343,"o":"m 1013 0 l 1013 658 l 454 0 l 122 0 l 122 1033 l 454 1033 l 454 375 l 1013 1033 l 1343 1033 l 1343 0 l 1013 0 z "},"Й":{"ha":1465,"x_min":122,"x_max":1343,"o":"m 1013 0 l 1013 658 l 454 0 l 122 0 l 122 1033 l 454 1033 l 454 375 l 1013 1033 l 1343 1033 l 1343 0 l 1013 0 m 713 1106 q 478 1194 550 1106 q 438 1267 450 1228 q 426 1343 426 1307 l 426 1346 l 647 1346 q 665 1299 650 1317 q 732 1269 685 1269 l 733 1269 q 797 1299 778 1269 q 814 1346 811 1317 l 1033 1346 l 1033 1343 q 1019 1268 1033 1308 q 975 1194 1006 1228 q 749 1106 899 1106 l 713 1106 z "},"К":{"ha":1328,"x_min":122,"x_max":1339,"o":"m 914 0 l 453 474 l 453 0 l 122 0 l 122 1033 l 453 1033 l 453 621 l 907 1033 l 1310 1033 l 786 564 l 1339 0 l 914 0 z "},"Л":{"ha":1389,"x_min":39,"x_max":1267,"o":"m 935 788 l 536 788 q 524 425 536 569 q 482 200 511 281 q 379 58 446 106 q 150 0 296 0 l 39 0 l 39 269 l 56 269 q 138 290 108 269 q 185 349 167 311 q 203 414 197 375 q 214 525 210 453 q 219 1033 219 657 l 1267 1033 l 1267 0 l 935 0 l 935 788 z "},"М":{"ha":1738,"x_min":122,"x_max":1615,"o":"m 122 0 l 122 1033 l 572 1033 l 876 390 l 1188 1033 l 1615 1033 l 1615 0 l 1290 0 l 1290 660 l 981 0 l 750 0 l 442 660 l 442 0 l 122 0 z "},"Н":{"ha":1457,"x_min":122,"x_max":1335,"o":"m 122 0 l 122 1033 l 454 1033 l 454 660 l 1003 660 l 1003 1033 l 1335 1033 l 1335 0 l 1003 0 l 1003 403 l 454 403 l 454 0 l 122 0 z "},"О":{"ha":1501,"x_min":76,"x_max":1425,"o":"m 782 1050 q 1179 967 1024 1050 q 1374 771 1308 896 q 1425 540 1425 668 l 1425 499 q 1395 319 1425 408 q 1299 160 1365 231 q 782 -17 1132 -17 l 719 -17 q 324 69 478 -17 q 129 269 190 143 q 76 499 76 374 l 76 540 q 129 771 76 669 q 324 967 192 896 q 719 1050 476 1050 l 782 1050 m 1079 529 q 1019 703 1079 638 q 751 792 938 792 q 483 703 568 792 q 422 529 422 638 l 422 511 q 486 336 422 404 q 751 244 571 244 q 1019 336 938 244 q 1079 511 1079 403 l 1079 529 z "},"П":{"ha":1383,"x_min":122,"x_max":1261,"o":"m 122 0 l 122 1033 l 1261 1033 l 1261 0 l 929 0 l 929 788 l 454 788 l 454 0 l 122 0 z "},"Р":{"ha":1375,"x_min":122,"x_max":1307,"o":"m 454 319 l 454 0 l 122 0 l 122 1033 l 850 1033 q 1213 936 1101 1033 q 1307 688 1307 853 l 1307 671 q 1211 419 1307 504 q 850 319 1097 319 l 454 319 m 454 567 l 822 567 q 963 675 963 567 l 963 679 q 822 785 963 785 l 454 785 l 454 567 z "},"С":{"ha":1446,"x_min":76,"x_max":1372,"o":"m 699 -17 q 314 71 463 -17 q 126 274 185 147 q 76 499 76 379 l 76 540 q 126 765 76 660 q 313 965 188 894 q 699 1050 463 1050 l 763 1050 q 1251 911 1096 1050 q 1344 782 1315 854 q 1372 632 1372 710 l 1372 625 l 1031 625 q 1019 663 1026 643 q 977 719 1010 692 q 889 768 944 747 q 731 790 832 790 q 485 706 563 790 q 422 531 422 638 l 422 513 q 438 421 422 467 q 486 338 453 375 q 732 246 568 246 q 979 319 903 246 q 1019 376 1008 346 q 1031 414 1026 396 l 1372 414 l 1372 406 q 1324 218 1372 306 q 1139 54 1267 115 q 763 -17 990 -17 l 699 -17 z "},"Т":{"ha":1272,"x_min":64,"x_max":1208,"o":"m 471 0 l 471 772 l 64 772 l 64 1033 l 1208 1033 l 1208 772 l 801 772 l 801 0 l 471 0 z "},"У":{"ha":1331,"x_min":-11,"x_max":1343,"o":"m 869 229 q 800 126 833 167 q 725 58 767 85 q 624 15 681 29 q 489 0 567 0 l 239 0 l 239 254 l 422 254 q 450 276 450 254 l 450 278 q 445 300 450 289 q 429 329 440 311 l -11 1033 l 365 1033 l 683 506 l 982 1033 l 1343 1033 l 869 229 z "},"Ф":{"ha":1828,"x_min":49,"x_max":1779,"o":"m 749 1047 l 1079 1047 l 1079 940 l 1283 940 q 1636 849 1508 940 q 1779 538 1779 746 l 1779 526 q 1742 340 1779 419 q 1636 207 1704 260 q 1478 131 1569 157 q 1281 106 1388 106 l 1079 106 l 1079 -14 l 749 -14 l 749 106 l 547 106 q 349 131 440 106 q 193 207 258 157 q 49 526 49 315 l 49 538 q 192 849 49 746 q 544 940 319 940 l 749 940 l 749 1047 m 615 696 q 452 657 510 696 q 394 538 394 618 l 394 526 q 615 350 394 350 l 749 350 l 749 696 l 615 696 m 1079 350 l 1211 350 q 1433 526 1433 350 l 1433 538 q 1376 657 1433 618 q 1211 696 1318 696 l 1079 696 l 1079 350 z "},"Х":{"ha":1356,"x_min":3,"x_max":1353,"o":"m 954 0 l 675 333 l 393 0 l 3 0 l 440 531 l 15 1033 l 431 1033 l 690 721 l 950 1033 l 1329 1033 l 914 532 l 1353 0 l 954 0 z "},"Ц":{"ha":1463,"x_min":122,"x_max":1428,"o":"m 1119 -174 l 1119 0 l 122 0 l 122 1033 l 454 1033 l 454 246 l 929 246 l 929 1033 l 1261 1033 l 1261 246 l 1428 246 l 1428 -174 l 1119 -174 z "},"Ч":{"ha":1371,"x_min":76,"x_max":1249,"o":"m 918 375 q 647 356 765 356 q 398 374 501 356 q 225 436 294 392 q 113 561 150 482 q 76 763 76 640 l 76 1033 l 408 1033 l 408 811 q 425 710 408 749 q 478 647 442 671 q 568 615 513 625 q 707 606 624 606 q 825 611 747 606 q 918 621 894 617 l 918 1033 l 1249 1033 l 1249 0 l 918 0 l 918 375 z "},"Ш":{"ha":1863,"x_min":122,"x_max":1740,"o":"m 122 0 l 122 1033 l 454 1033 l 454 246 l 765 246 l 765 1033 l 1097 1033 l 1097 246 l 1408 246 l 1408 1033 l 1740 1033 l 1740 0 l 122 0 z "},"Щ":{"ha":1942,"x_min":122,"x_max":1907,"o":"m 122 0 l 122 1033 l 454 1033 l 454 246 l 765 246 l 765 1033 l 1097 1033 l 1097 246 l 1408 246 l 1408 1033 l 1740 1033 l 1740 246 l 1907 246 l 1907 -174 l 1599 -174 l 1599 0 l 122 0 z "},"Ъ":{"ha":1567,"x_min":28,"x_max":1518,"o":"m 664 713 l 1067 713 q 1424 615 1315 713 q 1518 365 1518 531 l 1518 350 q 1422 101 1518 188 q 1067 0 1310 0 l 332 0 l 332 788 l 28 788 l 28 1033 l 664 1033 l 664 713 m 1039 246 q 1138 274 1104 246 q 1172 353 1172 303 l 1172 363 q 1138 439 1172 411 q 1039 467 1104 467 l 664 467 l 664 246 l 1039 246 z "},"Ы":{"ha":1933,"x_min":122,"x_max":1811,"o":"m 454 713 l 857 713 q 1214 615 1106 713 q 1308 365 1308 531 l 1308 350 q 1213 101 1308 188 q 857 0 1100 0 l 122 0 l 122 1033 l 454 1033 l 454 713 m 829 246 q 928 274 894 246 q 963 353 963 303 l 963 363 q 928 439 963 411 q 829 467 894 467 l 454 467 l 454 246 l 829 246 m 1811 1033 l 1811 0 l 1479 0 l 1479 1033 l 1811 1033 z "},"Ь":{"ha":1357,"x_min":122,"x_max":1308,"o":"m 454 713 l 857 713 q 1214 615 1106 713 q 1308 365 1308 531 l 1308 350 q 1213 101 1308 188 q 857 0 1100 0 l 122 0 l 122 1033 l 454 1033 l 454 713 m 829 246 q 928 274 894 246 q 963 353 963 303 l 963 363 q 928 439 963 411 q 829 467 894 467 l 454 467 l 454 246 l 829 246 z "},"Э":{"ha":1446,"x_min":74,"x_max":1369,"o":"m 1369 499 q 1321 274 1369 376 q 1133 71 1263 147 q 747 -17 985 -17 l 683 -17 q 196 126 353 -17 q 103 254 132 183 q 74 396 74 325 l 74 404 l 415 404 q 426 368 418 389 q 469 310 436 339 q 556 261 501 282 q 714 239 613 239 q 921 290 839 239 q 1014 407 985 331 l 565 407 l 565 640 l 1014 640 q 922 751 986 713 q 715 797 844 797 q 468 726 547 797 q 426 671 436 697 q 415 635 418 650 l 74 635 l 74 642 q 103 788 74 717 q 199 914 133 858 q 683 1050 358 1050 l 747 1050 q 1051 1003 926 1050 q 1249 874 1175 956 q 1341 716 1313 803 q 1369 540 1369 629 l 1369 499 z "},"Ю":{"ha":1997,"x_min":122,"x_max":1921,"o":"m 1921 499 q 1871 269 1921 371 q 1681 69 1810 143 q 1290 -17 1526 -17 l 1229 -17 q 768 118 931 -17 q 660 249 700 175 q 607 403 621 322 l 454 403 l 454 0 l 122 0 l 122 1033 l 454 1033 l 454 660 l 611 660 q 781 928 650 829 q 1229 1050 944 1050 l 1290 1050 q 1679 967 1526 1050 q 1869 771 1807 896 q 1921 540 1921 668 l 1921 499 m 1575 529 q 1517 703 1575 635 q 1260 792 1438 792 q 1003 703 1082 792 q 944 529 944 638 l 944 511 q 959 419 944 465 q 1006 336 974 374 q 1260 244 1085 244 q 1517 336 1438 244 q 1575 511 1575 406 l 1575 529 z "},"Я":{"ha":1440,"x_min":44,"x_max":1318,"o":"m 769 338 l 442 0 l 44 0 l 410 375 q 178 476 258 397 q 99 683 99 554 l 99 697 q 126 831 99 769 q 208 938 154 892 q 533 1033 324 1033 l 1318 1033 l 1318 0 l 986 0 l 986 338 l 769 338 m 986 786 l 576 786 q 446 689 446 786 l 446 686 q 480 611 446 636 q 576 586 514 586 l 986 586 l 986 786 z "},"а":{"ha":1126,"x_min":67,"x_max":1088,"o":"m 701 101 q 611 31 660 57 q 403 -15 525 -15 l 379 -15 q 143 57 225 -15 q 86 135 106 90 q 67 232 67 181 l 67 238 q 143 400 67 347 q 421 474 222 457 l 636 490 q 681 504 668 493 q 693 536 693 515 l 693 538 q 669 585 693 571 q 549 606 635 606 l 544 606 q 425 576 457 606 q 403 528 403 556 l 86 528 l 86 529 q 111 638 86 590 q 232 744 149 707 q 522 792 343 792 l 567 792 q 936 701 833 792 q 988 624 975 667 q 1001 528 1001 581 l 1001 281 q 1011 238 1001 250 q 1051 226 1021 226 l 1088 226 l 1088 0 l 832 0 q 743 35 781 0 q 701 101 714 60 m 499 167 q 650 218 596 167 q 683 265 672 239 q 693 314 693 290 l 693 363 q 538 332 644 350 q 414 299 444 317 q 381 244 381 281 l 381 242 q 410 187 381 207 q 499 167 439 167 z "},"б":{"ha":1190,"x_min":67,"x_max":1124,"o":"m 1124 357 q 972 61 1124 156 q 613 -21 842 -21 l 585 -21 q 221 76 349 -21 q 67 451 67 192 l 67 511 q 213 910 67 785 q 628 1026 347 1026 l 696 1026 q 744 1028 732 1026 q 772 1033 764 1031 q 784 1040 781 1036 q 790 1051 788 1043 l 1092 1051 q 1080 936 1092 982 q 1039 861 1068 890 q 956 817 1008 831 q 819 803 903 803 l 649 803 q 432 756 496 803 q 384 697 399 732 q 368 613 369 663 q 512 700 426 669 q 721 731 597 731 l 735 731 q 877 711 808 731 q 999 651 946 692 q 1090 538 1057 607 q 1124 372 1124 468 l 1124 357 m 603 196 q 740 238 689 196 q 796 365 796 282 q 742 490 796 446 q 604 531 689 531 l 590 531 q 447 489 499 531 q 394 364 394 447 q 447 238 394 281 q 590 196 500 196 l 603 196 z "},"в":{"ha":1171,"x_min":107,"x_max":1101,"o":"m 107 0 l 107 774 l 789 774 q 1000 726 924 774 q 1076 588 1076 678 l 1076 581 q 1035 465 1076 508 q 922 410 994 422 q 1047 354 996 401 q 1101 222 1101 304 l 1101 217 q 817 0 1101 0 l 107 0 m 657 468 q 751 538 751 468 l 751 542 q 657 608 751 608 l 422 608 l 422 468 l 657 468 m 668 165 q 776 238 776 165 l 776 246 q 668 319 776 319 l 422 319 l 422 165 l 668 165 z "},"г":{"ha":856,"x_min":107,"x_max":824,"o":"m 107 0 l 107 774 l 824 774 l 824 556 l 422 556 l 422 0 l 107 0 z "},"д":{"ha":1265,"x_min":44,"x_max":1221,"o":"m 44 218 l 140 218 q 189 450 172 289 q 203 774 200 563 l 1082 774 l 1082 218 l 1221 218 l 1221 -164 l 929 -164 l 929 0 l 336 0 l 336 -164 l 44 -164 l 44 218 m 767 218 l 767 557 l 483 557 q 469 383 483 483 q 432 218 457 293 l 767 218 z "},"е":{"ha":1174,"x_min":68,"x_max":1107,"o":"m 1104 247 q 1072 144 1101 192 q 935 33 1032 75 q 625 -19 813 -19 l 568 -19 q 165 113 290 -19 q 68 376 68 214 l 68 396 q 163 661 68 560 q 550 792 283 792 l 611 792 q 1018 656 899 792 q 1088 522 1068 597 q 1107 354 1107 446 l 1107 326 l 392 326 q 450 221 403 258 q 607 181 501 181 q 742 208 699 181 q 767 231 760 218 l 775 247 l 1104 247 m 585 604 q 451 572 494 604 q 396 478 408 539 l 771 478 q 736 563 771 532 q 585 604 688 604 z "},"ж":{"ha":1553,"x_min":-4,"x_max":1557,"o":"m 614 0 l 614 339 l 347 0 l -4 0 l 326 415 l 13 774 l 371 774 l 614 482 l 614 774 l 929 774 l 929 482 l 1171 774 l 1522 774 l 1217 426 l 1557 0 l 1194 0 l 929 339 l 929 0 l 614 0 z "},"з":{"ha":1124,"x_min":68,"x_max":1054,"o":"m 1054 218 q 941 40 1054 100 q 589 -21 828 -21 l 564 -21 q 185 60 314 -21 q 68 263 68 132 l 68 274 l 403 274 q 461 188 404 215 q 578 164 507 164 q 728 247 728 164 l 728 250 q 701 302 728 289 q 611 315 674 315 l 432 315 l 432 483 l 611 483 q 703 546 703 483 l 703 549 q 671 597 703 581 q 568 613 638 613 q 453 593 496 613 q 407 536 411 574 l 75 536 l 75 540 q 108 651 75 603 q 206 732 142 700 q 558 794 331 794 l 581 794 q 917 743 804 794 q 1029 585 1029 692 l 1029 579 q 974 456 1029 504 q 868 406 929 419 q 936 385 907 396 q 990 357 965 375 q 1054 226 1054 310 l 1054 218 z "},"и":{"ha":1200,"x_min":107,"x_max":1093,"o":"m 778 449 l 429 0 l 107 0 l 107 774 l 422 774 l 422 322 l 771 774 l 1093 774 l 1093 0 l 778 0 l 778 449 z "},"й":{"ha":1200,"x_min":107,"x_max":1093,"o":"m 778 449 l 429 0 l 107 0 l 107 774 l 422 774 l 422 322 l 771 774 l 1093 774 l 1093 0 l 778 0 l 778 449 m 579 847 q 347 936 419 847 q 308 1010 319 971 q 296 1086 296 1050 l 296 1089 l 518 1089 q 532 1042 518 1063 q 597 1011 553 1011 l 599 1011 q 661 1042 640 1011 q 675 1089 675 1063 l 896 1089 l 896 1086 q 883 1010 896 1050 q 840 936 869 971 q 614 847 764 847 l 579 847 z "},"к":{"ha":1057,"x_min":108,"x_max":1061,"o":"m 697 0 l 424 349 l 424 0 l 108 0 l 108 774 l 424 774 l 424 474 l 674 774 l 1026 774 l 721 426 l 1061 0 l 697 0 z "},"л":{"ha":1167,"x_min":49,"x_max":1060,"o":"m 744 556 l 476 556 q 469 313 476 403 q 443 172 463 224 q 413 106 428 132 q 369 57 397 79 q 158 0 299 0 l 49 0 l 49 215 l 65 215 q 129 233 106 215 q 164 299 153 251 q 178 432 176 356 q 181 774 181 565 l 1060 774 l 1060 0 l 744 0 l 744 556 z "},"м":{"ha":1488,"x_min":107,"x_max":1388,"o":"m 397 499 l 397 0 l 107 0 l 107 774 l 563 774 l 765 343 l 969 774 l 1388 774 l 1388 0 l 1076 0 l 1076 499 l 840 0 l 633 0 l 397 499 z "},"н":{"ha":1194,"x_min":107,"x_max":1088,"o":"m 422 0 l 107 0 l 107 774 l 422 774 l 422 499 l 772 499 l 772 774 l 1088 774 l 1088 0 l 772 0 l 772 281 l 422 281 l 422 0 z "},"о":{"ha":1190,"x_min":67,"x_max":1124,"o":"m 574 -21 q 244 51 367 -21 q 99 210 144 108 q 67 374 67 281 l 67 393 q 99 558 67 485 q 243 721 144 661 q 572 794 365 794 l 619 794 q 956 721 832 794 q 1096 558 1054 663 q 1124 394 1124 483 l 1124 372 q 1096 210 1124 283 q 954 51 1056 110 q 618 -21 832 -21 l 574 -21 m 601 197 q 757 265 706 197 q 796 390 796 315 q 757 515 796 465 q 601 579 707 579 l 589 579 q 432 515 479 579 q 394 390 394 467 q 432 264 394 314 q 589 197 479 197 l 601 197 z "},"п":{"ha":1158,"x_min":107,"x_max":1051,"o":"m 107 0 l 107 774 l 1051 774 l 1051 0 l 736 0 l 736 556 l 422 556 l 422 0 l 107 0 z "},"р":{"ha":1215,"x_min":108,"x_max":1146,"o":"m 108 774 l 422 774 l 422 676 q 525 746 458 715 q 733 789 617 789 l 747 789 q 1061 667 956 789 q 1125 545 1104 614 q 1146 401 1146 476 l 1146 378 q 1124 240 1146 308 q 1058 117 1103 171 q 739 -15 953 -15 l 724 -15 q 519 28 608 -15 q 424 92 468 50 l 424 -264 l 108 -264 l 108 774 m 818 390 q 781 510 818 461 q 628 571 731 571 l 617 571 q 464 510 515 571 q 433 453 443 485 q 422 390 422 421 l 422 383 q 433 321 422 353 q 464 264 443 289 q 617 204 514 204 l 628 204 q 781 267 731 204 q 818 385 818 315 l 818 390 z "},"с":{"ha":1156,"x_min":68,"x_max":1089,"o":"m 1089 313 q 1058 175 1089 238 q 924 40 1018 89 q 619 -21 806 -21 l 551 -21 q 156 122 276 -21 q 88 247 108 179 q 68 381 68 314 l 68 400 q 88 533 68 467 q 156 654 108 600 q 550 794 279 794 l 610 794 q 922 735 799 794 q 1058 604 1018 688 q 1089 472 1089 542 l 1089 471 l 760 471 q 726 533 756 506 q 588 579 678 579 l 575 579 q 433 519 479 579 q 396 393 396 472 l 396 392 q 435 261 396 314 q 578 197 481 197 l 590 197 q 729 247 686 197 q 752 283 744 265 q 760 313 760 301 l 1089 313 z "},"т":{"ha":968,"x_min":32,"x_max":936,"o":"m 326 0 l 326 556 l 32 556 l 32 774 l 936 774 l 936 556 l 642 556 l 642 0 l 326 0 z "},"у":{"ha":1082,"x_min":14,"x_max":1067,"o":"m 161 -54 l 336 -54 q 372 -26 372 -54 q 368 0 372 -15 q 349 42 357 28 l 14 774 l 361 774 l 560 244 l 747 774 l 1067 774 l 719 -71 q 615 -217 678 -171 q 451 -264 553 -264 l 161 -264 l 161 -54 z "},"ф":{"ha":1538,"x_min":67,"x_max":1471,"o":"m 926 -21 l 926 -261 l 611 -261 l 611 -21 l 578 -21 q 240 51 364 -21 q 97 210 142 107 q 67 372 67 281 l 67 394 q 97 558 67 485 q 240 721 142 663 q 576 794 367 794 l 611 794 l 611 1033 l 926 1033 l 926 794 l 961 794 q 1300 721 1174 794 q 1442 558 1400 663 q 1471 394 1471 485 l 1471 372 q 1442 210 1471 282 q 1300 51 1400 108 q 960 -21 1176 -21 l 926 -21 m 611 190 l 611 586 l 589 586 q 433 522 483 586 q 394 390 394 472 q 433 257 394 308 q 589 190 481 190 l 611 190 m 926 586 l 926 190 l 949 190 q 1104 257 1054 190 q 1143 390 1143 308 q 1104 522 1143 472 q 949 586 1054 586 l 926 586 z "},"х":{"ha":1082,"x_min":0,"x_max":1083,"o":"m 725 0 l 539 222 l 356 0 l 6 0 l 329 392 l 0 774 l 372 774 l 550 558 l 724 774 l 1067 774 l 757 394 l 1083 0 l 725 0 z "},"ц":{"ha":1235,"x_min":107,"x_max":1190,"o":"m 1190 218 l 1190 -164 l 899 -164 l 899 0 l 107 0 l 107 774 l 422 774 l 422 218 l 736 218 l 736 774 l 1051 774 l 1051 218 l 1190 218 z "},"ч":{"ha":1121,"x_min":58,"x_max":1014,"o":"m 1014 774 l 1014 0 l 699 0 l 699 261 q 486 247 579 247 q 283 266 364 247 q 153 325 201 285 q 81 431 103 365 q 58 593 58 496 l 58 774 l 374 774 l 374 631 q 383 549 374 581 q 415 501 393 518 q 469 478 435 485 q 558 472 504 472 q 699 482 633 472 l 699 774 l 1014 774 z "},"ш":{"ha":1593,"x_min":107,"x_max":1488,"o":"m 107 0 l 107 774 l 422 774 l 422 218 l 639 218 l 639 774 l 954 774 l 954 218 l 1172 218 l 1172 774 l 1488 774 l 1488 0 l 107 0 z "},"щ":{"ha":1669,"x_min":107,"x_max":1626,"o":"m 107 0 l 107 774 l 422 774 l 422 218 l 639 218 l 639 774 l 954 774 l 954 218 l 1172 218 l 1172 774 l 1488 774 l 1488 218 l 1626 218 l 1626 -164 l 1333 -164 l 1333 0 l 107 0 z "},"ъ":{"ha":1236,"x_min":32,"x_max":1188,"o":"m 32 774 l 563 774 l 563 564 l 821 564 q 1104 486 1011 564 q 1188 293 1188 415 l 1188 276 q 1104 76 1188 146 q 821 0 1013 0 l 247 0 l 247 556 l 32 556 l 32 774 m 754 200 q 828 217 800 200 q 863 282 863 235 l 863 286 q 828 350 863 329 q 754 365 799 365 l 563 365 l 563 200 l 754 200 z "},"ы":{"ha":1628,"x_min":107,"x_max":1519,"o":"m 107 774 l 422 774 l 422 564 l 681 564 q 964 486 871 564 q 1047 293 1047 415 l 1047 276 q 964 76 1047 146 q 681 0 872 0 l 107 0 l 107 774 m 614 200 q 688 217 660 200 q 722 282 722 235 l 722 286 q 688 350 722 329 q 614 365 658 365 l 422 365 l 422 200 l 614 200 m 1519 774 l 1519 0 l 1204 0 l 1204 774 l 1519 774 z "},"ь":{"ha":1096,"x_min":107,"x_max":1047,"o":"m 107 774 l 422 774 l 422 564 l 681 564 q 964 486 871 564 q 1047 293 1047 415 l 1047 276 q 964 76 1047 146 q 681 0 872 0 l 107 0 l 107 774 m 614 200 q 688 217 660 200 q 722 282 722 235 l 722 286 q 688 350 722 329 q 614 365 658 365 l 422 365 l 422 200 l 614 200 z "},"э":{"ha":1154,"x_min":65,"x_max":1088,"o":"m 1088 381 q 1001 122 1088 224 q 604 -21 881 -21 l 536 -21 q 147 101 264 -21 q 83 201 101 147 q 65 308 65 256 l 394 308 q 426 239 399 271 q 567 188 469 188 l 579 188 q 758 314 721 188 l 474 314 l 474 481 l 756 481 q 583 589 719 589 l 569 589 q 431 542 478 589 q 405 506 414 525 q 394 476 396 488 l 65 476 l 65 478 q 96 607 65 547 q 233 736 139 690 q 546 794 353 794 l 606 794 q 1001 654 878 794 q 1088 400 1088 556 l 1088 381 z "},"ю":{"ha":1621,"x_min":107,"x_max":1554,"o":"m 1554 372 q 1526 210 1554 283 q 1389 51 1489 111 q 1061 -21 1272 -21 l 1017 -21 q 656 79 782 -21 q 535 281 557 157 l 422 281 l 422 0 l 107 0 l 107 774 l 422 774 l 422 499 l 538 499 q 663 697 569 625 q 1015 794 786 794 l 1063 794 q 1390 721 1268 794 q 1526 558 1489 661 q 1554 394 1554 483 l 1554 372 m 1046 197 q 1192 265 1143 197 q 1226 390 1226 315 q 1192 515 1226 465 q 1046 579 1144 579 l 1033 579 q 886 515 931 579 q 853 390 853 468 q 885 264 853 311 q 1033 197 931 197 l 1046 197 z "},"я":{"ha":1199,"x_min":53,"x_max":1092,"o":"m 611 246 l 407 0 l 53 0 l 289 283 q 142 362 193 306 q 92 506 92 418 l 92 519 q 174 701 92 633 q 415 774 261 774 l 1092 774 l 1092 0 l 776 0 l 776 246 l 611 246 m 515 583 q 414 510 414 583 l 414 506 q 442 448 414 467 q 517 429 471 429 l 776 429 l 776 583 l 515 583 z "},"ё":{"ha":1174,"x_min":68,"x_max":1107,"o":"m 1104 247 q 1072 144 1101 192 q 935 33 1032 75 q 625 -19 813 -19 l 568 -19 q 165 113 290 -19 q 68 376 68 214 l 68 396 q 163 661 68 560 q 550 792 283 792 l 611 792 q 1018 656 899 792 q 1088 522 1068 597 q 1107 354 1107 446 l 1107 326 l 392 326 q 450 221 403 258 q 607 181 501 181 q 742 208 699 181 q 767 231 760 218 l 775 247 l 1104 247 m 585 604 q 451 572 494 604 q 396 478 408 539 l 771 478 q 736 563 771 532 q 585 604 688 604 m 543 1054 l 543 851 l 242 851 l 242 1054 l 543 1054 m 922 1054 l 922 851 l 621 851 l 621 1054 l 922 1054 z "},"ѓ":{"ha":856,"x_min":107,"x_max":824,"o":"m 107 0 l 107 774 l 824 774 l 824 556 l 422 556 l 422 0 l 107 0 m 293 854 l 422 1068 l 769 1068 l 601 854 l 293 854 z "},"ў":{"ha":1082,"x_min":14,"x_max":1067,"o":"m 161 -54 l 336 -54 q 372 -26 372 -54 q 368 0 372 -15 q 349 42 357 28 l 14 774 l 361 774 l 560 244 l 747 774 l 1067 774 l 719 -71 q 615 -217 678 -171 q 451 -264 553 -264 l 161 -264 l 161 -54 m 538 847 q 306 936 378 847 q 266 1010 278 971 q 254 1086 254 1050 l 254 1089 l 476 1089 q 490 1042 476 1063 q 556 1011 511 1011 l 557 1011 q 619 1042 599 1011 q 633 1089 633 1063 l 854 1089 l 854 1086 q 841 1010 854 1050 q 799 936 828 971 q 572 847 722 847 l 538 847 z "},"Ґ":{"ha":1061,"x_min":122,"x_max":1029,"o":"m 122 0 l 122 1033 l 721 1033 l 721 1213 l 1029 1213 l 1029 788 l 454 788 l 454 0 l 122 0 z "},"Ẁ":{"ha":1922,"x_min":14,"x_max":1908,"o":"m 815 1113 l 654 1325 l 1006 1325 l 1136 1113 l 815 1113 m 754 0 l 368 0 l 14 1033 l 369 1033 l 583 322 l 793 1033 l 1160 1033 l 1368 321 l 1582 1033 l 1908 1033 l 1564 0 l 1172 0 l 963 683 l 754 0 z "},"ẁ":{"ha":1647,"x_min":21,"x_max":1625,"o":"m 682 0 l 310 0 l 21 774 l 356 774 l 514 264 l 667 774 l 1011 774 l 1171 265 l 1321 774 l 1625 774 l 1361 0 l 983 0 l 828 467 l 682 0 m 857 1068 l 986 854 l 678 854 l 510 1068 l 857 1068 z "},"Ẃ":{"ha":1922,"x_min":14,"x_max":1908,"o":"m 1135 1113 l 815 1113 l 946 1325 l 1297 1325 l 1135 1113 m 754 0 l 368 0 l 14 1033 l 369 1033 l 583 322 l 793 1033 l 1160 1033 l 1368 321 l 1582 1033 l 1908 1033 l 1564 0 l 1172 0 l 963 683 l 754 0 z "},"ẃ":{"ha":1647,"x_min":21,"x_max":1625,"o":"m 681 854 l 810 1068 l 1157 1068 l 989 854 l 681 854 m 682 0 l 310 0 l 21 774 l 356 774 l 514 264 l 667 774 l 1011 774 l 1171 265 l 1321 774 l 1625 774 l 1361 0 l 983 0 l 828 467 l 682 0 z "},"Ẅ":{"ha":1922,"x_min":14,"x_max":1908,"o":"m 935 1315 l 935 1113 l 629 1113 l 629 1315 l 935 1315 m 1321 1315 l 1321 1113 l 1015 1113 l 1015 1315 l 1321 1315 m 754 0 l 368 0 l 14 1033 l 369 1033 l 583 322 l 793 1033 l 1160 1033 l 1368 321 l 1582 1033 l 1908 1033 l 1564 0 l 1172 0 l 963 683 l 754 0 z "},"ẅ":{"ha":1647,"x_min":21,"x_max":1625,"o":"m 796 1054 l 796 851 l 494 851 l 494 1054 l 796 1054 m 1175 1054 l 1175 851 l 874 851 l 874 1054 l 1175 1054 m 682 0 l 310 0 l 21 774 l 356 774 l 514 264 l 667 774 l 1011 774 l 1171 265 l 1321 774 l 1625 774 l 1361 0 l 983 0 l 828 467 l 682 0 z "},"Ỳ":{"ha":1342,"x_min":-12,"x_max":1354,"o":"m 514 0 l 514 374 l -12 1033 l 394 1033 l 692 646 l 990 1033 l 1354 1033 l 844 372 l 844 0 l 514 0 m 532 1113 l 371 1325 l 722 1325 l 853 1113 l 532 1113 z "},"ỳ":{"ha":1082,"x_min":14,"x_max":1067,"o":"m 161 -54 l 336 -54 q 372 -26 372 -54 q 368 0 372 -15 q 349 42 357 28 l 14 774 l 361 774 l 560 244 l 747 774 l 1067 774 l 719 -71 q 615 -217 678 -171 q 451 -264 553 -264 l 161 -264 l 161 -54 m 582 1068 l 711 854 l 403 854 l 235 1068 l 582 1068 z "},"–":{"ha":1158,"x_min":96,"x_max":1063,"o":"m 96 521 l 1063 521 l 1063 313 l 96 313 l 96 521 z "}}}
